%TF.GenerationSoftware,KiCad,Pcbnew,7.0.2*%
%TF.CreationDate,2023-06-27T07:08:14-04:00*%
%TF.ProjectId,RGB LED Controller,52474220-4c45-4442-9043-6f6e74726f6c,A*%
%TF.SameCoordinates,Original*%
%TF.FileFunction,Copper,L2,Bot*%
%TF.FilePolarity,Positive*%
%FSLAX46Y46*%
G04 Gerber Fmt 4.6, Leading zero omitted, Abs format (unit mm)*
G04 Created by KiCad (PCBNEW 7.0.2) date 2023-06-27 07:08:14*
%MOMM*%
%LPD*%
G01*
G04 APERTURE LIST*
%TA.AperFunction,ComponentPad*%
%ADD10R,1.600000X1.600000*%
%TD*%
%TA.AperFunction,ComponentPad*%
%ADD11O,1.600000X1.600000*%
%TD*%
%TA.AperFunction,ComponentPad*%
%ADD12C,1.600000*%
%TD*%
%TA.AperFunction,ComponentPad*%
%ADD13R,1.700000X1.700000*%
%TD*%
%TA.AperFunction,ComponentPad*%
%ADD14O,1.700000X1.700000*%
%TD*%
%TA.AperFunction,ComponentPad*%
%ADD15R,1.905000X2.000000*%
%TD*%
%TA.AperFunction,ComponentPad*%
%ADD16O,1.905000X2.000000*%
%TD*%
%TA.AperFunction,ComponentPad*%
%ADD17R,2.200000X2.200000*%
%TD*%
%TA.AperFunction,ComponentPad*%
%ADD18C,2.200000*%
%TD*%
%TA.AperFunction,ComponentPad*%
%ADD19C,1.524000*%
%TD*%
%TA.AperFunction,ComponentPad*%
%ADD20C,1.500000*%
%TD*%
%TA.AperFunction,ViaPad*%
%ADD21C,0.800000*%
%TD*%
%TA.AperFunction,Conductor*%
%ADD22C,0.250000*%
%TD*%
G04 APERTURE END LIST*
D10*
%TO.P,U1,1,~{RESET}/PC6*%
%TO.N,Net-(U1-~{RESET}{slash}PC6)*%
X163000000Y-84920000D03*
D11*
%TO.P,U1,2,PD0*%
%TO.N,unconnected-(U1-PD0-Pad2)*%
X163000000Y-87460000D03*
%TO.P,U1,3,PD1*%
%TO.N,unconnected-(U1-PD1-Pad3)*%
X163000000Y-90000000D03*
%TO.P,U1,4,PD2*%
%TO.N,/IR_RECV*%
X163000000Y-92540000D03*
%TO.P,U1,5,PD3*%
%TO.N,/G_PWM*%
X163000000Y-95080000D03*
%TO.P,U1,6,PD4*%
%TO.N,unconnected-(U1-PD4-Pad6)*%
X163000000Y-97620000D03*
%TO.P,U1,7,VCC*%
%TO.N,+5V*%
X163000000Y-100160000D03*
%TO.P,U1,8,GND*%
%TO.N,GND*%
X163000000Y-102700000D03*
%TO.P,U1,9,XTAL1/PB6*%
%TO.N,Net-(U1-XTAL1{slash}PB6)*%
X163000000Y-105240000D03*
%TO.P,U1,10,XTAL2/PB7*%
%TO.N,Net-(U1-XTAL2{slash}PB7)*%
X163000000Y-107780000D03*
%TO.P,U1,11,PD5*%
%TO.N,/R_PWM*%
X163000000Y-110320000D03*
%TO.P,U1,12,PD6*%
%TO.N,/B_PWM*%
X163000000Y-112860000D03*
%TO.P,U1,13,PD7*%
%TO.N,unconnected-(U1-PD7-Pad13)*%
X163000000Y-115400000D03*
%TO.P,U1,14,PB0*%
%TO.N,unconnected-(U1-PB0-Pad14)*%
X163000000Y-117940000D03*
%TO.P,U1,15,PB1*%
%TO.N,unconnected-(U1-PB1-Pad15)*%
X170620000Y-117940000D03*
%TO.P,U1,16,PB2*%
%TO.N,unconnected-(U1-PB2-Pad16)*%
X170620000Y-115400000D03*
%TO.P,U1,17,PB3*%
%TO.N,unconnected-(U1-PB3-Pad17)*%
X170620000Y-112860000D03*
%TO.P,U1,18,PB4*%
%TO.N,unconnected-(U1-PB4-Pad18)*%
X170620000Y-110320000D03*
%TO.P,U1,19,PB5*%
%TO.N,unconnected-(U1-PB5-Pad19)*%
X170620000Y-107780000D03*
%TO.P,U1,20,AVCC*%
%TO.N,+5V*%
X170620000Y-105240000D03*
%TO.P,U1,21,AREF*%
%TO.N,unconnected-(U1-AREF-Pad21)*%
X170620000Y-102700000D03*
%TO.P,U1,22,GND*%
%TO.N,GND*%
X170620000Y-100160000D03*
%TO.P,U1,23,PC0*%
%TO.N,/R_Analog*%
X170620000Y-97620000D03*
%TO.P,U1,24,PC1*%
%TO.N,/B_Analog*%
X170620000Y-95080000D03*
%TO.P,U1,25,PC2*%
%TO.N,/G_Analog*%
X170620000Y-92540000D03*
%TO.P,U1,26,PC3*%
%TO.N,unconnected-(U1-PC3-Pad26)*%
X170620000Y-90000000D03*
%TO.P,U1,27,PC4*%
%TO.N,unconnected-(U1-PC4-Pad27)*%
X170620000Y-87460000D03*
%TO.P,U1,28,PC5*%
%TO.N,unconnected-(U1-PC5-Pad28)*%
X170620000Y-84920000D03*
%TD*%
D12*
%TO.P,R1,1*%
%TO.N,/G_PWM*%
X159310000Y-93160000D03*
D11*
%TO.P,R1,2*%
%TO.N,Net-(Q3-B)*%
X151690000Y-93160000D03*
%TD*%
D12*
%TO.P,C3,1*%
%TO.N,Net-(U1-XTAL1{slash}PB6)*%
X152620000Y-105000000D03*
%TO.P,C3,2*%
%TO.N,GND*%
X152620000Y-102500000D03*
%TD*%
D13*
%TO.P,J3,1,VBUS*%
%TO.N,Net-(J3-VBUS)*%
X129620000Y-106080000D03*
D14*
%TO.P,J3,2,D-*%
%TO.N,unconnected-(J3-D--Pad2)*%
X129620000Y-108620000D03*
%TO.P,J3,3,D+*%
%TO.N,unconnected-(J3-D+-Pad3)*%
X129620000Y-111160000D03*
%TO.P,J3,4,ID*%
%TO.N,unconnected-(J3-ID-Pad4)*%
X129620000Y-113700000D03*
%TO.P,J3,5,GND*%
%TO.N,GND*%
X129620000Y-116240000D03*
%TD*%
D15*
%TO.P,Q3,1,B*%
%TO.N,Net-(Q3-B)*%
X151540000Y-87160000D03*
D16*
%TO.P,Q3,2,C*%
%TO.N,/G_LED*%
X154080000Y-87160000D03*
%TO.P,Q3,3,E*%
%TO.N,GND*%
X156620000Y-87160000D03*
%TD*%
D17*
%TO.P,J1,1,+*%
%TO.N,+5V*%
X147740000Y-77160000D03*
D18*
%TO.P,J1,2,G*%
%TO.N,/G_LED*%
X145200000Y-77160000D03*
%TO.P,J1,3,R*%
%TO.N,/R_LED*%
X142660000Y-77160000D03*
%TO.P,J1,4,B*%
%TO.N,/B_LED*%
X140120000Y-77160000D03*
%TD*%
D19*
%TO.P,RV1,1,1*%
%TO.N,GND*%
X157200000Y-126160000D03*
%TO.P,RV1,2,2*%
%TO.N,/B_Analog*%
X154660000Y-126160000D03*
%TO.P,RV1,3,3*%
%TO.N,+5V*%
X152120000Y-126160000D03*
%TD*%
%TO.P,RV2,1,1*%
%TO.N,GND*%
X147660000Y-126160000D03*
%TO.P,RV2,2,2*%
%TO.N,/G_Analog*%
X145120000Y-126160000D03*
%TO.P,RV2,3,3*%
%TO.N,+5V*%
X142580000Y-126160000D03*
%TD*%
D12*
%TO.P,R2,1*%
%TO.N,/R_PWM*%
X147730000Y-93160000D03*
D11*
%TO.P,R2,2*%
%TO.N,Net-(Q1-B)*%
X140110000Y-93160000D03*
%TD*%
D15*
%TO.P,Q1,1,B*%
%TO.N,Net-(Q1-B)*%
X140040000Y-87160000D03*
D16*
%TO.P,Q1,2,C*%
%TO.N,/R_LED*%
X142580000Y-87160000D03*
%TO.P,Q1,3,E*%
%TO.N,GND*%
X145120000Y-87160000D03*
%TD*%
D15*
%TO.P,Q2,1,B*%
%TO.N,Net-(Q2-B)*%
X128580000Y-87105000D03*
D16*
%TO.P,Q2,2,C*%
%TO.N,/B_LED*%
X131120000Y-87105000D03*
%TO.P,Q2,3,E*%
%TO.N,GND*%
X133660000Y-87105000D03*
%TD*%
D12*
%TO.P,C4,1*%
%TO.N,Net-(U1-XTAL2{slash}PB7)*%
X152620000Y-109000000D03*
%TO.P,C4,2*%
%TO.N,GND*%
X152620000Y-111500000D03*
%TD*%
D17*
%TO.P,J4,1,Pin_1*%
%TO.N,Net-(J3-VBUS)*%
X124120000Y-98160000D03*
D18*
%TO.P,J4,2,Pin_2*%
%TO.N,+5V*%
X124120000Y-100700000D03*
%TD*%
D12*
%TO.P,C2,1*%
%TO.N,Net-(J3-VBUS)*%
X130120000Y-97950000D03*
%TO.P,C2,2*%
%TO.N,GND*%
X130120000Y-100450000D03*
%TD*%
D13*
%TO.P,J2,1,Pin_1*%
%TO.N,/IR_RECV*%
X152040000Y-119160000D03*
D14*
%TO.P,J2,2,Pin_2*%
%TO.N,GND*%
X154580000Y-119160000D03*
%TO.P,J2,3,Pin_3*%
%TO.N,+5V*%
X157120000Y-119160000D03*
%TD*%
D12*
%TO.P,R4,1*%
%TO.N,+5V*%
X153660000Y-79160000D03*
D11*
%TO.P,R4,2*%
%TO.N,Net-(U1-~{RESET}{slash}PC6)*%
X163820000Y-79160000D03*
%TD*%
D12*
%TO.P,R3,1*%
%TO.N,/B_PWM*%
X136270000Y-93105000D03*
D11*
%TO.P,R3,2*%
%TO.N,Net-(Q2-B)*%
X128650000Y-93105000D03*
%TD*%
D20*
%TO.P,Y1,1,1*%
%TO.N,Net-(U1-XTAL2{slash}PB7)*%
X157620000Y-109450000D03*
%TO.P,Y1,2,2*%
%TO.N,Net-(U1-XTAL1{slash}PB6)*%
X157620000Y-104570000D03*
%TD*%
D19*
%TO.P,RV3,1,1*%
%TO.N,GND*%
X138200000Y-126160000D03*
%TO.P,RV3,2,2*%
%TO.N,/R_Analog*%
X135660000Y-126160000D03*
%TO.P,RV3,3,3*%
%TO.N,+5V*%
X133120000Y-126160000D03*
%TD*%
D21*
%TO.N,+5V*%
X167620000Y-104660000D03*
%TO.N,/IR_RECV*%
X165620000Y-104660000D03*
%TO.N,/G_Analog*%
X154120000Y-122660000D03*
X159620000Y-123660000D03*
%TO.N,/R_Analog*%
X168620000Y-103660000D03*
X155120000Y-121660000D03*
%TD*%
D22*
%TO.N,+5V*%
X158120000Y-119160000D02*
X157120000Y-119160000D01*
X167620000Y-118160000D02*
X165120000Y-120660000D01*
X165120000Y-120660000D02*
X159620000Y-120660000D01*
X167620000Y-104660000D02*
X167620000Y-118160000D01*
X159620000Y-120660000D02*
X158120000Y-119160000D01*
%TO.N,/IR_RECV*%
X165620000Y-95160000D02*
X163000000Y-92540000D01*
X165620000Y-104660000D02*
X165620000Y-95160000D01*
%TO.N,/G_PWM*%
X161080000Y-93160000D02*
X163000000Y-95080000D01*
X159310000Y-93160000D02*
X161080000Y-93160000D01*
%TO.N,/G_Analog*%
X155120000Y-123660000D02*
X154120000Y-122660000D01*
X159620000Y-123660000D02*
X155120000Y-123660000D01*
%TO.N,/R_Analog*%
X165120000Y-121660000D02*
X168620000Y-118160000D01*
X155120000Y-121660000D02*
X165120000Y-121660000D01*
X168620000Y-118160000D02*
X168620000Y-103660000D01*
%TD*%
%TA.AperFunction,Conductor*%
%TO.N,GND*%
G36*
X175062539Y-74180185D02*
G01*
X175108294Y-74232989D01*
X175119500Y-74284500D01*
X175119500Y-129035500D01*
X175099815Y-129102539D01*
X175047011Y-129148294D01*
X174995500Y-129159500D01*
X115244500Y-129159500D01*
X115177461Y-129139815D01*
X115131706Y-129087011D01*
X115120500Y-129035500D01*
X115120500Y-126160000D01*
X131852676Y-126160000D01*
X131871929Y-126380065D01*
X131929106Y-126593451D01*
X132022347Y-126793406D01*
X132022466Y-126793662D01*
X132149174Y-126974620D01*
X132305380Y-127130826D01*
X132486338Y-127257534D01*
X132686550Y-127350894D01*
X132899932Y-127408070D01*
X133120000Y-127427323D01*
X133340068Y-127408070D01*
X133553450Y-127350894D01*
X133753662Y-127257534D01*
X133934620Y-127130826D01*
X134090826Y-126974620D01*
X134217534Y-126793662D01*
X134275185Y-126670027D01*
X134277618Y-126664811D01*
X134323790Y-126612372D01*
X134390984Y-126593220D01*
X134457865Y-126613436D01*
X134502382Y-126664811D01*
X134562347Y-126793406D01*
X134562466Y-126793662D01*
X134689174Y-126974620D01*
X134845380Y-127130826D01*
X135026338Y-127257534D01*
X135226550Y-127350894D01*
X135439932Y-127408070D01*
X135660000Y-127427323D01*
X135880068Y-127408070D01*
X136093450Y-127350894D01*
X136293662Y-127257534D01*
X136474620Y-127130826D01*
X136630826Y-126974620D01*
X136757534Y-126793662D01*
X136817894Y-126664218D01*
X136864066Y-126611779D01*
X136931259Y-126592627D01*
X136998141Y-126612842D01*
X137042658Y-126664219D01*
X137102898Y-126793406D01*
X137148258Y-126858187D01*
X137815096Y-126191349D01*
X137815051Y-126191898D01*
X137846266Y-126315162D01*
X137915813Y-126421612D01*
X138016157Y-126499713D01*
X138136422Y-126541000D01*
X138172553Y-126541000D01*
X137501812Y-127211740D01*
X137566593Y-127257101D01*
X137766718Y-127350420D01*
X137980021Y-127407575D01*
X138199999Y-127426821D01*
X138419978Y-127407575D01*
X138633281Y-127350420D01*
X138833408Y-127257100D01*
X138898187Y-127211740D01*
X138227448Y-126541000D01*
X138231569Y-126541000D01*
X138325421Y-126525339D01*
X138437251Y-126464820D01*
X138523371Y-126371269D01*
X138574448Y-126254823D01*
X138580105Y-126186551D01*
X139251740Y-126858186D01*
X139297100Y-126793408D01*
X139390420Y-126593281D01*
X139447575Y-126379978D01*
X139466821Y-126160000D01*
X141312676Y-126160000D01*
X141331929Y-126380065D01*
X141389106Y-126593451D01*
X141482347Y-126793406D01*
X141482466Y-126793662D01*
X141609174Y-126974620D01*
X141765380Y-127130826D01*
X141946338Y-127257534D01*
X142146550Y-127350894D01*
X142359932Y-127408070D01*
X142506643Y-127420905D01*
X142579999Y-127427323D01*
X142579999Y-127427322D01*
X142580000Y-127427323D01*
X142800068Y-127408070D01*
X143013450Y-127350894D01*
X143213662Y-127257534D01*
X143394620Y-127130826D01*
X143550826Y-126974620D01*
X143677534Y-126793662D01*
X143735185Y-126670027D01*
X143737618Y-126664811D01*
X143783790Y-126612372D01*
X143850984Y-126593220D01*
X143917865Y-126613436D01*
X143962382Y-126664811D01*
X144022347Y-126793406D01*
X144022466Y-126793662D01*
X144149174Y-126974620D01*
X144305380Y-127130826D01*
X144486338Y-127257534D01*
X144686550Y-127350894D01*
X144899932Y-127408070D01*
X145120000Y-127427323D01*
X145340068Y-127408070D01*
X145553450Y-127350894D01*
X145753662Y-127257534D01*
X145934620Y-127130826D01*
X146090826Y-126974620D01*
X146217534Y-126793662D01*
X146277894Y-126664218D01*
X146324066Y-126611779D01*
X146391259Y-126592627D01*
X146458141Y-126612842D01*
X146502658Y-126664219D01*
X146562898Y-126793406D01*
X146608258Y-126858187D01*
X147275096Y-126191349D01*
X147275051Y-126191898D01*
X147306266Y-126315162D01*
X147375813Y-126421612D01*
X147476157Y-126499713D01*
X147596422Y-126541000D01*
X147632553Y-126541000D01*
X146961812Y-127211740D01*
X147026593Y-127257101D01*
X147226718Y-127350420D01*
X147440021Y-127407575D01*
X147659999Y-127426821D01*
X147879978Y-127407575D01*
X148093281Y-127350420D01*
X148293408Y-127257100D01*
X148358187Y-127211740D01*
X147687448Y-126541000D01*
X147691569Y-126541000D01*
X147785421Y-126525339D01*
X147897251Y-126464820D01*
X147983371Y-126371269D01*
X148034448Y-126254823D01*
X148040105Y-126186551D01*
X148711740Y-126858186D01*
X148757100Y-126793408D01*
X148850420Y-126593281D01*
X148907575Y-126379978D01*
X148926821Y-126160000D01*
X150852676Y-126160000D01*
X150871929Y-126380065D01*
X150929106Y-126593451D01*
X151022347Y-126793406D01*
X151022466Y-126793662D01*
X151149174Y-126974620D01*
X151305380Y-127130826D01*
X151486338Y-127257534D01*
X151686550Y-127350894D01*
X151899932Y-127408070D01*
X152120000Y-127427323D01*
X152340068Y-127408070D01*
X152553450Y-127350894D01*
X152753662Y-127257534D01*
X152934620Y-127130826D01*
X153090826Y-126974620D01*
X153217534Y-126793662D01*
X153277618Y-126664810D01*
X153323789Y-126612372D01*
X153390982Y-126593220D01*
X153457863Y-126613435D01*
X153502381Y-126664811D01*
X153562347Y-126793406D01*
X153562466Y-126793662D01*
X153689174Y-126974620D01*
X153845380Y-127130826D01*
X154026338Y-127257534D01*
X154226550Y-127350894D01*
X154439932Y-127408070D01*
X154586644Y-127420905D01*
X154659999Y-127427323D01*
X154659999Y-127427322D01*
X154660000Y-127427323D01*
X154880068Y-127408070D01*
X155093450Y-127350894D01*
X155293662Y-127257534D01*
X155474620Y-127130826D01*
X155630826Y-126974620D01*
X155757534Y-126793662D01*
X155817894Y-126664218D01*
X155864066Y-126611779D01*
X155931259Y-126592627D01*
X155998141Y-126612842D01*
X156042658Y-126664219D01*
X156102898Y-126793406D01*
X156148258Y-126858187D01*
X156815096Y-126191348D01*
X156815051Y-126191898D01*
X156846266Y-126315162D01*
X156915813Y-126421612D01*
X157016157Y-126499713D01*
X157136422Y-126541000D01*
X157172553Y-126541000D01*
X156501812Y-127211740D01*
X156566593Y-127257101D01*
X156766718Y-127350420D01*
X156980021Y-127407575D01*
X157200000Y-127426821D01*
X157419978Y-127407575D01*
X157633281Y-127350420D01*
X157833408Y-127257100D01*
X157898187Y-127211740D01*
X157227448Y-126541000D01*
X157231569Y-126541000D01*
X157325421Y-126525339D01*
X157437251Y-126464820D01*
X157523371Y-126371269D01*
X157574448Y-126254823D01*
X157580105Y-126186552D01*
X158251740Y-126858186D01*
X158297100Y-126793408D01*
X158390420Y-126593281D01*
X158447575Y-126379978D01*
X158466821Y-126160000D01*
X158447575Y-125940021D01*
X158390421Y-125726720D01*
X158297098Y-125526589D01*
X158251740Y-125461811D01*
X157584903Y-126128648D01*
X157584949Y-126128102D01*
X157553734Y-126004838D01*
X157484187Y-125898388D01*
X157383843Y-125820287D01*
X157263578Y-125779000D01*
X157227447Y-125779000D01*
X157898187Y-125108258D01*
X157833406Y-125062898D01*
X157633281Y-124969579D01*
X157419978Y-124912424D01*
X157200000Y-124893178D01*
X156980021Y-124912424D01*
X156766719Y-124969578D01*
X156566589Y-125062900D01*
X156501812Y-125108258D01*
X156501811Y-125108258D01*
X157172554Y-125779000D01*
X157168431Y-125779000D01*
X157074579Y-125794661D01*
X156962749Y-125855180D01*
X156876629Y-125948731D01*
X156825552Y-126065177D01*
X156819894Y-126133446D01*
X156148258Y-125461812D01*
X156102900Y-125526590D01*
X156042657Y-125655781D01*
X155996484Y-125708220D01*
X155929291Y-125727372D01*
X155862409Y-125707156D01*
X155817893Y-125655780D01*
X155817617Y-125655189D01*
X155757534Y-125526339D01*
X155630826Y-125345380D01*
X155474620Y-125189174D01*
X155293662Y-125062466D01*
X155093451Y-124969106D01*
X154880065Y-124911929D01*
X154660000Y-124892676D01*
X154439934Y-124911929D01*
X154226548Y-124969106D01*
X154026338Y-125062466D01*
X153845379Y-125189174D01*
X153689174Y-125345379D01*
X153562466Y-125526338D01*
X153502382Y-125655189D01*
X153456209Y-125707628D01*
X153389016Y-125726780D01*
X153322135Y-125706564D01*
X153277618Y-125655189D01*
X153260744Y-125619004D01*
X153217534Y-125526339D01*
X153090826Y-125345380D01*
X152934620Y-125189174D01*
X152753662Y-125062466D01*
X152553451Y-124969106D01*
X152340065Y-124911929D01*
X152120000Y-124892676D01*
X151899934Y-124911929D01*
X151686548Y-124969106D01*
X151486338Y-125062466D01*
X151305379Y-125189174D01*
X151149174Y-125345379D01*
X151022466Y-125526338D01*
X150929106Y-125726548D01*
X150871929Y-125939934D01*
X150852676Y-126160000D01*
X148926821Y-126160000D01*
X148926821Y-126159999D01*
X148907575Y-125940021D01*
X148850421Y-125726720D01*
X148757098Y-125526589D01*
X148711740Y-125461811D01*
X148044903Y-126128647D01*
X148044949Y-126128102D01*
X148013734Y-126004838D01*
X147944187Y-125898388D01*
X147843843Y-125820287D01*
X147723578Y-125779000D01*
X147687447Y-125779000D01*
X148358187Y-125108258D01*
X148293406Y-125062898D01*
X148093281Y-124969579D01*
X147879978Y-124912424D01*
X147659999Y-124893178D01*
X147440021Y-124912424D01*
X147226719Y-124969578D01*
X147026589Y-125062900D01*
X146961812Y-125108258D01*
X146961811Y-125108258D01*
X147632554Y-125779000D01*
X147628431Y-125779000D01*
X147534579Y-125794661D01*
X147422749Y-125855180D01*
X147336629Y-125948731D01*
X147285552Y-126065177D01*
X147279894Y-126133447D01*
X146608258Y-125461811D01*
X146608258Y-125461812D01*
X146562900Y-125526590D01*
X146502657Y-125655781D01*
X146456484Y-125708220D01*
X146389291Y-125727372D01*
X146322409Y-125707156D01*
X146277893Y-125655780D01*
X146277617Y-125655189D01*
X146217534Y-125526339D01*
X146090826Y-125345380D01*
X145934620Y-125189174D01*
X145753662Y-125062466D01*
X145553451Y-124969106D01*
X145340065Y-124911929D01*
X145120000Y-124892676D01*
X144899934Y-124911929D01*
X144686548Y-124969106D01*
X144486338Y-125062466D01*
X144305379Y-125189174D01*
X144149174Y-125345379D01*
X144022466Y-125526338D01*
X143962382Y-125655189D01*
X143916209Y-125707628D01*
X143849016Y-125726780D01*
X143782135Y-125706564D01*
X143737618Y-125655189D01*
X143720744Y-125619004D01*
X143677534Y-125526339D01*
X143550826Y-125345380D01*
X143394620Y-125189174D01*
X143213662Y-125062466D01*
X143213661Y-125062466D01*
X143013451Y-124969106D01*
X142800065Y-124911929D01*
X142580000Y-124892676D01*
X142359934Y-124911929D01*
X142146548Y-124969106D01*
X141946338Y-125062466D01*
X141765379Y-125189174D01*
X141609174Y-125345379D01*
X141482466Y-125526338D01*
X141389106Y-125726548D01*
X141331929Y-125939934D01*
X141312676Y-126160000D01*
X139466821Y-126160000D01*
X139447575Y-125940021D01*
X139390421Y-125726720D01*
X139297098Y-125526589D01*
X139251740Y-125461811D01*
X138584903Y-126128647D01*
X138584949Y-126128102D01*
X138553734Y-126004838D01*
X138484187Y-125898388D01*
X138383843Y-125820287D01*
X138263578Y-125779000D01*
X138227447Y-125779000D01*
X138898187Y-125108258D01*
X138833406Y-125062898D01*
X138633281Y-124969579D01*
X138419978Y-124912424D01*
X138199999Y-124893178D01*
X137980021Y-124912424D01*
X137766719Y-124969578D01*
X137566589Y-125062900D01*
X137501812Y-125108258D01*
X137501811Y-125108258D01*
X138172554Y-125779000D01*
X138168431Y-125779000D01*
X138074579Y-125794661D01*
X137962749Y-125855180D01*
X137876629Y-125948731D01*
X137825552Y-126065177D01*
X137819894Y-126133446D01*
X137148258Y-125461812D01*
X137102900Y-125526590D01*
X137042657Y-125655781D01*
X136996484Y-125708220D01*
X136929291Y-125727372D01*
X136862409Y-125707156D01*
X136817893Y-125655780D01*
X136817617Y-125655189D01*
X136757534Y-125526339D01*
X136630826Y-125345380D01*
X136474620Y-125189174D01*
X136293662Y-125062466D01*
X136293661Y-125062466D01*
X136093451Y-124969106D01*
X135880065Y-124911929D01*
X135659999Y-124892676D01*
X135439934Y-124911929D01*
X135226548Y-124969106D01*
X135026338Y-125062466D01*
X134845379Y-125189174D01*
X134689174Y-125345379D01*
X134562466Y-125526338D01*
X134502382Y-125655189D01*
X134456209Y-125707628D01*
X134389016Y-125726780D01*
X134322135Y-125706564D01*
X134277618Y-125655189D01*
X134260744Y-125619004D01*
X134217534Y-125526339D01*
X134090826Y-125345380D01*
X133934620Y-125189174D01*
X133753662Y-125062466D01*
X133753661Y-125062466D01*
X133553451Y-124969106D01*
X133340065Y-124911929D01*
X133120000Y-124892676D01*
X132899934Y-124911929D01*
X132686548Y-124969106D01*
X132486338Y-125062466D01*
X132305379Y-125189174D01*
X132149174Y-125345379D01*
X132022466Y-125526338D01*
X131929106Y-125726548D01*
X131871929Y-125939934D01*
X131852676Y-126160000D01*
X115120500Y-126160000D01*
X115120500Y-124227764D01*
X118265787Y-124227764D01*
X118295413Y-124497016D01*
X118295414Y-124497018D01*
X118363928Y-124759088D01*
X118428879Y-124911930D01*
X118469871Y-125008392D01*
X118610982Y-125239611D01*
X118700253Y-125346881D01*
X118784255Y-125447820D01*
X118985998Y-125628582D01*
X119211910Y-125778044D01*
X119318211Y-125827876D01*
X119457177Y-125893021D01*
X119716562Y-125971058D01*
X119716569Y-125971060D01*
X119984561Y-126010500D01*
X119984564Y-126010500D01*
X120185369Y-126010500D01*
X120187631Y-126010500D01*
X120390156Y-125995677D01*
X120654553Y-125936780D01*
X120907558Y-125840014D01*
X121143777Y-125707441D01*
X121358177Y-125541888D01*
X121546186Y-125346881D01*
X121703799Y-125126579D01*
X121827656Y-124885675D01*
X121915118Y-124629305D01*
X121964319Y-124362933D01*
X121974212Y-124092235D01*
X121944586Y-123822982D01*
X121876072Y-123560912D01*
X121770130Y-123311610D01*
X121629018Y-123080390D01*
X121629017Y-123080388D01*
X121455746Y-122872181D01*
X121350759Y-122778112D01*
X121254002Y-122691418D01*
X121028090Y-122541956D01*
X121028086Y-122541954D01*
X120782822Y-122426978D01*
X120523437Y-122348941D01*
X120523431Y-122348940D01*
X120255439Y-122309500D01*
X120052369Y-122309500D01*
X120050120Y-122309664D01*
X120050109Y-122309665D01*
X119849843Y-122324322D01*
X119585449Y-122383219D01*
X119332441Y-122479986D01*
X119096223Y-122612559D01*
X118881825Y-122778109D01*
X118693813Y-122973120D01*
X118536201Y-123193420D01*
X118412342Y-123434329D01*
X118324881Y-123690695D01*
X118275680Y-123957066D01*
X118265787Y-124227764D01*
X115120500Y-124227764D01*
X115120500Y-120054578D01*
X150689500Y-120054578D01*
X150689501Y-120057872D01*
X150695909Y-120117483D01*
X150746204Y-120252331D01*
X150832454Y-120367546D01*
X150947669Y-120453796D01*
X151082517Y-120504091D01*
X151142127Y-120510500D01*
X152937872Y-120510499D01*
X152997483Y-120504091D01*
X153132331Y-120453796D01*
X153247546Y-120367546D01*
X153333796Y-120252331D01*
X153383003Y-120120399D01*
X153424873Y-120064467D01*
X153490337Y-120040050D01*
X153558610Y-120054901D01*
X153586865Y-120076053D01*
X153708918Y-120198106D01*
X153902423Y-120333600D01*
X154116509Y-120433430D01*
X154330000Y-120490634D01*
X154330000Y-119595501D01*
X154437685Y-119644680D01*
X154544237Y-119660000D01*
X154615763Y-119660000D01*
X154722315Y-119644680D01*
X154830000Y-119595501D01*
X154830000Y-120490633D01*
X155043490Y-120433430D01*
X155257576Y-120333600D01*
X155451081Y-120198106D01*
X155618109Y-120031078D01*
X155748119Y-119845405D01*
X155802696Y-119801780D01*
X155872194Y-119794586D01*
X155934549Y-119826109D01*
X155951265Y-119845400D01*
X156081505Y-120031401D01*
X156248599Y-120198495D01*
X156442170Y-120334035D01*
X156656337Y-120433903D01*
X156884592Y-120495063D01*
X157120000Y-120515659D01*
X157355408Y-120495063D01*
X157583663Y-120433903D01*
X157797830Y-120334035D01*
X157991401Y-120198495D01*
X158044973Y-120144922D01*
X158106293Y-120111439D01*
X158175985Y-120116423D01*
X158220333Y-120144924D01*
X158898228Y-120822819D01*
X158931713Y-120884142D01*
X158926729Y-120953834D01*
X158884857Y-121009767D01*
X158819393Y-121034184D01*
X158810547Y-121034500D01*
X155823747Y-121034500D01*
X155756708Y-121014815D01*
X155731599Y-120993473D01*
X155725871Y-120987112D01*
X155572730Y-120875849D01*
X155572729Y-120875848D01*
X155572727Y-120875847D01*
X155399802Y-120798855D01*
X155214648Y-120759500D01*
X155214646Y-120759500D01*
X155025354Y-120759500D01*
X155025352Y-120759500D01*
X154840197Y-120798855D01*
X154667269Y-120875848D01*
X154514129Y-120987110D01*
X154387466Y-121127783D01*
X154292820Y-121291715D01*
X154234326Y-121471742D01*
X154215753Y-121648461D01*
X154189168Y-121713076D01*
X154131871Y-121753061D01*
X154092432Y-121759500D01*
X154025352Y-121759500D01*
X153840197Y-121798855D01*
X153667269Y-121875848D01*
X153514129Y-121987110D01*
X153387466Y-122127783D01*
X153292820Y-122291715D01*
X153234326Y-122471742D01*
X153214540Y-122660000D01*
X153234326Y-122848257D01*
X153292820Y-123028284D01*
X153387466Y-123192216D01*
X153514129Y-123332889D01*
X153667269Y-123444151D01*
X153840197Y-123521144D01*
X154025352Y-123560500D01*
X154025354Y-123560500D01*
X154084548Y-123560500D01*
X154151587Y-123580185D01*
X154172229Y-123596819D01*
X154619197Y-124043787D01*
X154632098Y-124059889D01*
X154634212Y-124061874D01*
X154634214Y-124061877D01*
X154666542Y-124092235D01*
X154683240Y-124107916D01*
X154686036Y-124110626D01*
X154705530Y-124130120D01*
X154708615Y-124132513D01*
X154708701Y-124132580D01*
X154717573Y-124140158D01*
X154749418Y-124170062D01*
X154766974Y-124179714D01*
X154783231Y-124190392D01*
X154799064Y-124202674D01*
X154815185Y-124209649D01*
X154839156Y-124220023D01*
X154849643Y-124225160D01*
X154887908Y-124246197D01*
X154907316Y-124251180D01*
X154925710Y-124257478D01*
X154944105Y-124265438D01*
X154987254Y-124272271D01*
X154998680Y-124274638D01*
X155014222Y-124278629D01*
X155040980Y-124285500D01*
X155040981Y-124285500D01*
X155061016Y-124285500D01*
X155080413Y-124287026D01*
X155100196Y-124290160D01*
X155143674Y-124286050D01*
X155155344Y-124285500D01*
X158916253Y-124285500D01*
X158983292Y-124305185D01*
X159008400Y-124326526D01*
X159014129Y-124332888D01*
X159167270Y-124444151D01*
X159167271Y-124444151D01*
X159167272Y-124444152D01*
X159340197Y-124521144D01*
X159525352Y-124560500D01*
X159525354Y-124560500D01*
X159714648Y-124560500D01*
X159838084Y-124534262D01*
X159899803Y-124521144D01*
X160072730Y-124444151D01*
X160072729Y-124444150D01*
X160225870Y-124332889D01*
X160231598Y-124326528D01*
X160320525Y-124227764D01*
X168265787Y-124227764D01*
X168295413Y-124497016D01*
X168295414Y-124497018D01*
X168363928Y-124759088D01*
X168428879Y-124911930D01*
X168469871Y-125008392D01*
X168610982Y-125239611D01*
X168700253Y-125346881D01*
X168784255Y-125447820D01*
X168985998Y-125628582D01*
X169211910Y-125778044D01*
X169318211Y-125827876D01*
X169457177Y-125893021D01*
X169716562Y-125971058D01*
X169716569Y-125971060D01*
X169984561Y-126010500D01*
X169984564Y-126010500D01*
X170185369Y-126010500D01*
X170187631Y-126010500D01*
X170390156Y-125995677D01*
X170654553Y-125936780D01*
X170907558Y-125840014D01*
X171143777Y-125707441D01*
X171358177Y-125541888D01*
X171546186Y-125346881D01*
X171703799Y-125126579D01*
X171827656Y-124885675D01*
X171915118Y-124629305D01*
X171964319Y-124362933D01*
X171974212Y-124092235D01*
X171944586Y-123822982D01*
X171876072Y-123560912D01*
X171770130Y-123311610D01*
X171629018Y-123080390D01*
X171629017Y-123080388D01*
X171455746Y-122872181D01*
X171350759Y-122778112D01*
X171254002Y-122691418D01*
X171028090Y-122541956D01*
X171028086Y-122541954D01*
X170782822Y-122426978D01*
X170523437Y-122348941D01*
X170523431Y-122348940D01*
X170255439Y-122309500D01*
X170052369Y-122309500D01*
X170050120Y-122309664D01*
X170050109Y-122309665D01*
X169849843Y-122324322D01*
X169585449Y-122383219D01*
X169332441Y-122479986D01*
X169096223Y-122612559D01*
X168881825Y-122778109D01*
X168693813Y-122973120D01*
X168536201Y-123193420D01*
X168412342Y-123434329D01*
X168324881Y-123690695D01*
X168275680Y-123957066D01*
X168265787Y-124227764D01*
X160320525Y-124227764D01*
X160352533Y-124192216D01*
X160447179Y-124028284D01*
X160505674Y-123848256D01*
X160525460Y-123660000D01*
X160505674Y-123471744D01*
X160447179Y-123291716D01*
X160447179Y-123291715D01*
X160352533Y-123127783D01*
X160225870Y-122987110D01*
X160072730Y-122875848D01*
X159899802Y-122798855D01*
X159714648Y-122759500D01*
X159714646Y-122759500D01*
X159525354Y-122759500D01*
X159525352Y-122759500D01*
X159340197Y-122798855D01*
X159167272Y-122875847D01*
X159065175Y-122950024D01*
X159014129Y-122987112D01*
X159008401Y-122993472D01*
X158948916Y-123030121D01*
X158916253Y-123034500D01*
X155430452Y-123034500D01*
X155363413Y-123014815D01*
X155342771Y-122998181D01*
X155116772Y-122772181D01*
X155083287Y-122710858D01*
X155088271Y-122641166D01*
X155130143Y-122585233D01*
X155195607Y-122560816D01*
X155204453Y-122560500D01*
X155214648Y-122560500D01*
X155338083Y-122534262D01*
X155399803Y-122521144D01*
X155572730Y-122444151D01*
X155725871Y-122332888D01*
X155731598Y-122326527D01*
X155791084Y-122289879D01*
X155823747Y-122285500D01*
X165037256Y-122285500D01*
X165057762Y-122287764D01*
X165060665Y-122287672D01*
X165060667Y-122287673D01*
X165127872Y-122285561D01*
X165131768Y-122285500D01*
X165155448Y-122285500D01*
X165159350Y-122285500D01*
X165163313Y-122284999D01*
X165174962Y-122284080D01*
X165218627Y-122282709D01*
X165237859Y-122277120D01*
X165256918Y-122273174D01*
X165263196Y-122272381D01*
X165276792Y-122270664D01*
X165317407Y-122254582D01*
X165328444Y-122250803D01*
X165370390Y-122238618D01*
X165387629Y-122228422D01*
X165405102Y-122219862D01*
X165423732Y-122212486D01*
X165459064Y-122186814D01*
X165468830Y-122180400D01*
X165506418Y-122158171D01*
X165506417Y-122158171D01*
X165506420Y-122158170D01*
X165520585Y-122144004D01*
X165535373Y-122131373D01*
X165551587Y-122119594D01*
X165579438Y-122085926D01*
X165587279Y-122077309D01*
X169003789Y-118660800D01*
X169019885Y-118647906D01*
X169021873Y-118645787D01*
X169021877Y-118645786D01*
X169067949Y-118596723D01*
X169070534Y-118594055D01*
X169090120Y-118574471D01*
X169092585Y-118571292D01*
X169100167Y-118562416D01*
X169130062Y-118530582D01*
X169139717Y-118513018D01*
X169150394Y-118496764D01*
X169162673Y-118480936D01*
X169180018Y-118440852D01*
X169185159Y-118430358D01*
X169191074Y-118419599D01*
X169240621Y-118370336D01*
X169308936Y-118355680D01*
X169374330Y-118380285D01*
X169412117Y-118426933D01*
X169489432Y-118592735D01*
X169619953Y-118779140D01*
X169780859Y-118940046D01*
X169967264Y-119070567D01*
X169967265Y-119070567D01*
X169967266Y-119070568D01*
X170173504Y-119166739D01*
X170393308Y-119225635D01*
X170620000Y-119245468D01*
X170846692Y-119225635D01*
X171066496Y-119166739D01*
X171272734Y-119070568D01*
X171459139Y-118940047D01*
X171620047Y-118779139D01*
X171750568Y-118592734D01*
X171846739Y-118386496D01*
X171905635Y-118166692D01*
X171925468Y-117940000D01*
X171925225Y-117937228D01*
X171905635Y-117713310D01*
X171905635Y-117713308D01*
X171846739Y-117493504D01*
X171750568Y-117287266D01*
X171744155Y-117278106D01*
X171620046Y-117100859D01*
X171459140Y-116939953D01*
X171272733Y-116809431D01*
X171214725Y-116782382D01*
X171162285Y-116736210D01*
X171143133Y-116669017D01*
X171163348Y-116602135D01*
X171214725Y-116557618D01*
X171272734Y-116530568D01*
X171459139Y-116400047D01*
X171620047Y-116239139D01*
X171750568Y-116052734D01*
X171846739Y-115846496D01*
X171905635Y-115626692D01*
X171925468Y-115400000D01*
X171905635Y-115173308D01*
X171846739Y-114953504D01*
X171750568Y-114747266D01*
X171627430Y-114571404D01*
X171620046Y-114560859D01*
X171459140Y-114399953D01*
X171272733Y-114269431D01*
X171214725Y-114242382D01*
X171162285Y-114196210D01*
X171143133Y-114129017D01*
X171163348Y-114062135D01*
X171214725Y-114017618D01*
X171272734Y-113990568D01*
X171459139Y-113860047D01*
X171620047Y-113699139D01*
X171750568Y-113512734D01*
X171846739Y-113306496D01*
X171905635Y-113086692D01*
X171925468Y-112860000D01*
X171905635Y-112633308D01*
X171846739Y-112413504D01*
X171750568Y-112207266D01*
X171744426Y-112198493D01*
X171620046Y-112020859D01*
X171459140Y-111859953D01*
X171272733Y-111729431D01*
X171214725Y-111702382D01*
X171162285Y-111656210D01*
X171143133Y-111589017D01*
X171163348Y-111522135D01*
X171214725Y-111477618D01*
X171272734Y-111450568D01*
X171459139Y-111320047D01*
X171620047Y-111159139D01*
X171750568Y-110972734D01*
X171846739Y-110766496D01*
X171905635Y-110546692D01*
X171925468Y-110320000D01*
X171905635Y-110093308D01*
X171846739Y-109873504D01*
X171750568Y-109667266D01*
X171740394Y-109652735D01*
X171620046Y-109480859D01*
X171459140Y-109319953D01*
X171272733Y-109189431D01*
X171214725Y-109162382D01*
X171162285Y-109116210D01*
X171143133Y-109049017D01*
X171163348Y-108982135D01*
X171214725Y-108937618D01*
X171272734Y-108910568D01*
X171459139Y-108780047D01*
X171620047Y-108619139D01*
X171750568Y-108432734D01*
X171846739Y-108226496D01*
X171905635Y-108006692D01*
X171925468Y-107780000D01*
X171905635Y-107553308D01*
X171846739Y-107333504D01*
X171750568Y-107127266D01*
X171645963Y-106977872D01*
X171620046Y-106940859D01*
X171459140Y-106779953D01*
X171272733Y-106649431D01*
X171214725Y-106622382D01*
X171162285Y-106576210D01*
X171143133Y-106509017D01*
X171163348Y-106442135D01*
X171214725Y-106397618D01*
X171272734Y-106370568D01*
X171459139Y-106240047D01*
X171620047Y-106079139D01*
X171750568Y-105892734D01*
X171846739Y-105686496D01*
X171905635Y-105466692D01*
X171925468Y-105240000D01*
X171905635Y-105013308D01*
X171846739Y-104793504D01*
X171750568Y-104587266D01*
X171738479Y-104570000D01*
X171620046Y-104400859D01*
X171459140Y-104239953D01*
X171272733Y-104109431D01*
X171214725Y-104082382D01*
X171162285Y-104036210D01*
X171143133Y-103969017D01*
X171163348Y-103902135D01*
X171214725Y-103857618D01*
X171215317Y-103857342D01*
X171272734Y-103830568D01*
X171459139Y-103700047D01*
X171620047Y-103539139D01*
X171750568Y-103352734D01*
X171846739Y-103146496D01*
X171905635Y-102926692D01*
X171925468Y-102700000D01*
X171905635Y-102473308D01*
X171846739Y-102253504D01*
X171750568Y-102047266D01*
X171716658Y-101998836D01*
X171620046Y-101860859D01*
X171459140Y-101699953D01*
X171272736Y-101569433D01*
X171215315Y-101542657D01*
X171214132Y-101542105D01*
X171161695Y-101495933D01*
X171142543Y-101428739D01*
X171162759Y-101361858D01*
X171214135Y-101317342D01*
X171272479Y-101290135D01*
X171458819Y-101159658D01*
X171619658Y-100998819D01*
X171750134Y-100812480D01*
X171846266Y-100606326D01*
X171898872Y-100410000D01*
X170935686Y-100410000D01*
X170947641Y-100398045D01*
X171005165Y-100285148D01*
X171024986Y-100160000D01*
X171005165Y-100034852D01*
X170947641Y-99921955D01*
X170935686Y-99910000D01*
X171898872Y-99910000D01*
X171898871Y-99909999D01*
X171846266Y-99713673D01*
X171750134Y-99507519D01*
X171619658Y-99321180D01*
X171458819Y-99160341D01*
X171272482Y-99029866D01*
X171214133Y-99002657D01*
X171161694Y-98956484D01*
X171142543Y-98889290D01*
X171162759Y-98822409D01*
X171214134Y-98777893D01*
X171272734Y-98750568D01*
X171459139Y-98620047D01*
X171620047Y-98459139D01*
X171750568Y-98272734D01*
X171846739Y-98066496D01*
X171905635Y-97846692D01*
X171925468Y-97620000D01*
X171905635Y-97393308D01*
X171846739Y-97173504D01*
X171750568Y-96967266D01*
X171740240Y-96952515D01*
X171620046Y-96780859D01*
X171459140Y-96619953D01*
X171272733Y-96489431D01*
X171214725Y-96462382D01*
X171162285Y-96416210D01*
X171143133Y-96349017D01*
X171163348Y-96282135D01*
X171214725Y-96237618D01*
X171272734Y-96210568D01*
X171459139Y-96080047D01*
X171620047Y-95919139D01*
X171750568Y-95732734D01*
X171846739Y-95526496D01*
X171905635Y-95306692D01*
X171925468Y-95080000D01*
X171921609Y-95035897D01*
X171918749Y-95003207D01*
X171905635Y-94853308D01*
X171846739Y-94633504D01*
X171750568Y-94427266D01*
X171722191Y-94386738D01*
X171620046Y-94240859D01*
X171459140Y-94079953D01*
X171272733Y-93949431D01*
X171214725Y-93922382D01*
X171162285Y-93876210D01*
X171143133Y-93809017D01*
X171163348Y-93742135D01*
X171214725Y-93697618D01*
X171272734Y-93670568D01*
X171459139Y-93540047D01*
X171620047Y-93379139D01*
X171750568Y-93192734D01*
X171846739Y-92986496D01*
X171905635Y-92766692D01*
X171925468Y-92540000D01*
X171905635Y-92313308D01*
X171846739Y-92093504D01*
X171750568Y-91887266D01*
X171620047Y-91700861D01*
X171620046Y-91700859D01*
X171459140Y-91539953D01*
X171272733Y-91409431D01*
X171214725Y-91382382D01*
X171162285Y-91336210D01*
X171143133Y-91269017D01*
X171163348Y-91202135D01*
X171214725Y-91157618D01*
X171272734Y-91130568D01*
X171459139Y-91000047D01*
X171620047Y-90839139D01*
X171750568Y-90652734D01*
X171846739Y-90446496D01*
X171905635Y-90226692D01*
X171925468Y-90000000D01*
X171905635Y-89773308D01*
X171846739Y-89553504D01*
X171750568Y-89347266D01*
X171620047Y-89160861D01*
X171620046Y-89160859D01*
X171459140Y-88999953D01*
X171272733Y-88869431D01*
X171214725Y-88842382D01*
X171162285Y-88796210D01*
X171143133Y-88729017D01*
X171163348Y-88662135D01*
X171214725Y-88617618D01*
X171240712Y-88605500D01*
X171272734Y-88590568D01*
X171459139Y-88460047D01*
X171620047Y-88299139D01*
X171750568Y-88112734D01*
X171846739Y-87906496D01*
X171905635Y-87686692D01*
X171925468Y-87460000D01*
X171905635Y-87233308D01*
X171846739Y-87013504D01*
X171750568Y-86807266D01*
X171632815Y-86639095D01*
X171620046Y-86620859D01*
X171459140Y-86459953D01*
X171272733Y-86329431D01*
X171214725Y-86302382D01*
X171162285Y-86256210D01*
X171143133Y-86189017D01*
X171163348Y-86122135D01*
X171214725Y-86077618D01*
X171272734Y-86050568D01*
X171459139Y-85920047D01*
X171620047Y-85759139D01*
X171750568Y-85572734D01*
X171846739Y-85366496D01*
X171905635Y-85146692D01*
X171925468Y-84920000D01*
X171905635Y-84693308D01*
X171846739Y-84473504D01*
X171750568Y-84267266D01*
X171620047Y-84080861D01*
X171620046Y-84080859D01*
X171459140Y-83919953D01*
X171272735Y-83789432D01*
X171066497Y-83693261D01*
X170846689Y-83634364D01*
X170619999Y-83614531D01*
X170393310Y-83634364D01*
X170173502Y-83693261D01*
X169967264Y-83789432D01*
X169780859Y-83919953D01*
X169619953Y-84080859D01*
X169489432Y-84267264D01*
X169393261Y-84473502D01*
X169334364Y-84693310D01*
X169314531Y-84919999D01*
X169334364Y-85146689D01*
X169393261Y-85366497D01*
X169489432Y-85572735D01*
X169619953Y-85759140D01*
X169780859Y-85920046D01*
X169951929Y-86039829D01*
X169967266Y-86050568D01*
X170025275Y-86077618D01*
X170077714Y-86123791D01*
X170096865Y-86190985D01*
X170076649Y-86257866D01*
X170025275Y-86302382D01*
X169967263Y-86329433D01*
X169780859Y-86459953D01*
X169619953Y-86620859D01*
X169489432Y-86807264D01*
X169393261Y-87013502D01*
X169334364Y-87233310D01*
X169314531Y-87459999D01*
X169334364Y-87686689D01*
X169393261Y-87906497D01*
X169489432Y-88112735D01*
X169619953Y-88299140D01*
X169780859Y-88460046D01*
X169956980Y-88583366D01*
X169967266Y-88590568D01*
X169999288Y-88605500D01*
X170025275Y-88617618D01*
X170077714Y-88663791D01*
X170096865Y-88730985D01*
X170076649Y-88797866D01*
X170025275Y-88842382D01*
X169967263Y-88869433D01*
X169780859Y-88999953D01*
X169619953Y-89160859D01*
X169489432Y-89347264D01*
X169393261Y-89553502D01*
X169334364Y-89773310D01*
X169314531Y-90000000D01*
X169334364Y-90226689D01*
X169393261Y-90446497D01*
X169489432Y-90652735D01*
X169619953Y-90839140D01*
X169780859Y-91000046D01*
X169967263Y-91130566D01*
X169967266Y-91130568D01*
X170025275Y-91157618D01*
X170077714Y-91203791D01*
X170096865Y-91270985D01*
X170076649Y-91337866D01*
X170025275Y-91382382D01*
X169967263Y-91409433D01*
X169780859Y-91539953D01*
X169619953Y-91700859D01*
X169489432Y-91887264D01*
X169393261Y-92093502D01*
X169334364Y-92313310D01*
X169314531Y-92539999D01*
X169334364Y-92766689D01*
X169393261Y-92986497D01*
X169489432Y-93192735D01*
X169619953Y-93379140D01*
X169780859Y-93540046D01*
X169797213Y-93551497D01*
X169967266Y-93670568D01*
X170025275Y-93697618D01*
X170077714Y-93743791D01*
X170096865Y-93810985D01*
X170076649Y-93877866D01*
X170025275Y-93922382D01*
X169967263Y-93949433D01*
X169780859Y-94079953D01*
X169619953Y-94240859D01*
X169489432Y-94427264D01*
X169393261Y-94633502D01*
X169334364Y-94853310D01*
X169314531Y-95079999D01*
X169334364Y-95306689D01*
X169393261Y-95526497D01*
X169489432Y-95732735D01*
X169619953Y-95919140D01*
X169780859Y-96080046D01*
X169967263Y-96210566D01*
X169967266Y-96210568D01*
X170025275Y-96237618D01*
X170077714Y-96283791D01*
X170096865Y-96350985D01*
X170076649Y-96417866D01*
X170025275Y-96462382D01*
X169967263Y-96489433D01*
X169780859Y-96619953D01*
X169619953Y-96780859D01*
X169489432Y-96967264D01*
X169393261Y-97173502D01*
X169334364Y-97393310D01*
X169314531Y-97620000D01*
X169334364Y-97846689D01*
X169393261Y-98066497D01*
X169489432Y-98272735D01*
X169619953Y-98459140D01*
X169780859Y-98620046D01*
X169967264Y-98750567D01*
X169967265Y-98750567D01*
X169967266Y-98750568D01*
X170025865Y-98777893D01*
X170078304Y-98824065D01*
X170097456Y-98891259D01*
X170077240Y-98958140D01*
X170025866Y-99002656D01*
X169967522Y-99029863D01*
X169781180Y-99160341D01*
X169620341Y-99321180D01*
X169489865Y-99507519D01*
X169393733Y-99713673D01*
X169341128Y-99909999D01*
X169341128Y-99910000D01*
X170304314Y-99910000D01*
X170292359Y-99921955D01*
X170234835Y-100034852D01*
X170215014Y-100160000D01*
X170234835Y-100285148D01*
X170292359Y-100398045D01*
X170304314Y-100410000D01*
X169341128Y-100410000D01*
X169393733Y-100606326D01*
X169489865Y-100812480D01*
X169620341Y-100998819D01*
X169781180Y-101159658D01*
X169967519Y-101290134D01*
X170025865Y-101317342D01*
X170078304Y-101363514D01*
X170097456Y-101430708D01*
X170077240Y-101497589D01*
X170025866Y-101542105D01*
X169967267Y-101569430D01*
X169780859Y-101699953D01*
X169619953Y-101860859D01*
X169489432Y-102047264D01*
X169393261Y-102253502D01*
X169334364Y-102473310D01*
X169314531Y-102700000D01*
X169323659Y-102804331D01*
X169309892Y-102872831D01*
X169261277Y-102923014D01*
X169193248Y-102938947D01*
X169127405Y-102915571D01*
X169127246Y-102915456D01*
X169072730Y-102875848D01*
X168899802Y-102798855D01*
X168714648Y-102759500D01*
X168714646Y-102759500D01*
X168525354Y-102759500D01*
X168525352Y-102759500D01*
X168340197Y-102798855D01*
X168167269Y-102875848D01*
X168014129Y-102987110D01*
X167887466Y-103127783D01*
X167792820Y-103291715D01*
X167734326Y-103471742D01*
X167734325Y-103471744D01*
X167734326Y-103471744D01*
X167716922Y-103637342D01*
X167715753Y-103648461D01*
X167689168Y-103713076D01*
X167631871Y-103753061D01*
X167592432Y-103759500D01*
X167525352Y-103759500D01*
X167340197Y-103798855D01*
X167167269Y-103875848D01*
X167014129Y-103987110D01*
X166887466Y-104127783D01*
X166792820Y-104291715D01*
X166737931Y-104460649D01*
X166698494Y-104518325D01*
X166634135Y-104545523D01*
X166565289Y-104533608D01*
X166513813Y-104486364D01*
X166502069Y-104460649D01*
X166447179Y-104291715D01*
X166352533Y-104127783D01*
X166277350Y-104044284D01*
X166247120Y-103981293D01*
X166245500Y-103961312D01*
X166245500Y-95242743D01*
X166247764Y-95222239D01*
X166245561Y-95152112D01*
X166245500Y-95148218D01*
X166245500Y-95124541D01*
X166245500Y-95120650D01*
X166244998Y-95116683D01*
X166244081Y-95105027D01*
X166242710Y-95061373D01*
X166237118Y-95042126D01*
X166233174Y-95023085D01*
X166230664Y-95003208D01*
X166214579Y-94962583D01*
X166210808Y-94951568D01*
X166198618Y-94909610D01*
X166188414Y-94892355D01*
X166179861Y-94874895D01*
X166172486Y-94856269D01*
X166172486Y-94856268D01*
X166146808Y-94820925D01*
X166140401Y-94811171D01*
X166118169Y-94773579D01*
X166104006Y-94759416D01*
X166091367Y-94744617D01*
X166079595Y-94728413D01*
X166045941Y-94700573D01*
X166037299Y-94692709D01*
X164299413Y-92954822D01*
X164265928Y-92893499D01*
X164267319Y-92835047D01*
X164285635Y-92766692D01*
X164305468Y-92540000D01*
X164285635Y-92313308D01*
X164226739Y-92093504D01*
X164130568Y-91887266D01*
X164000047Y-91700861D01*
X164000046Y-91700859D01*
X163839140Y-91539953D01*
X163652733Y-91409431D01*
X163594725Y-91382382D01*
X163542285Y-91336210D01*
X163523133Y-91269017D01*
X163543348Y-91202135D01*
X163594725Y-91157618D01*
X163652734Y-91130568D01*
X163839139Y-91000047D01*
X164000047Y-90839139D01*
X164130568Y-90652734D01*
X164226739Y-90446496D01*
X164285635Y-90226692D01*
X164305468Y-90000000D01*
X164285635Y-89773308D01*
X164226739Y-89553504D01*
X164130568Y-89347266D01*
X164000047Y-89160861D01*
X164000046Y-89160859D01*
X163839140Y-88999953D01*
X163652733Y-88869431D01*
X163594725Y-88842382D01*
X163542285Y-88796210D01*
X163523133Y-88729017D01*
X163543348Y-88662135D01*
X163594725Y-88617618D01*
X163620712Y-88605500D01*
X163652734Y-88590568D01*
X163839139Y-88460047D01*
X164000047Y-88299139D01*
X164130568Y-88112734D01*
X164226739Y-87906496D01*
X164285635Y-87686692D01*
X164305468Y-87460000D01*
X164285635Y-87233308D01*
X164226739Y-87013504D01*
X164130568Y-86807266D01*
X164012815Y-86639095D01*
X164000046Y-86620859D01*
X163839140Y-86459953D01*
X163814537Y-86442726D01*
X163770912Y-86388150D01*
X163763718Y-86318651D01*
X163795241Y-86256296D01*
X163855470Y-86220882D01*
X163872401Y-86217862D01*
X163907483Y-86214091D01*
X164042331Y-86163796D01*
X164157546Y-86077546D01*
X164243796Y-85962331D01*
X164294091Y-85827483D01*
X164300500Y-85767873D01*
X164300499Y-84072128D01*
X164294091Y-84012517D01*
X164243796Y-83877669D01*
X164157546Y-83762454D01*
X164042331Y-83676204D01*
X163907483Y-83625909D01*
X163847873Y-83619500D01*
X163844550Y-83619500D01*
X162155439Y-83619500D01*
X162155420Y-83619500D01*
X162152128Y-83619501D01*
X162148848Y-83619853D01*
X162148840Y-83619854D01*
X162092515Y-83625909D01*
X161957669Y-83676204D01*
X161842454Y-83762454D01*
X161756204Y-83877668D01*
X161705910Y-84012515D01*
X161705909Y-84012517D01*
X161699500Y-84072127D01*
X161699500Y-84075448D01*
X161699500Y-84075449D01*
X161699500Y-85764560D01*
X161699500Y-85764578D01*
X161699501Y-85767872D01*
X161699853Y-85771152D01*
X161699854Y-85771159D01*
X161705909Y-85827484D01*
X161719033Y-85862670D01*
X161756204Y-85962331D01*
X161842454Y-86077546D01*
X161957669Y-86163796D01*
X162092517Y-86214091D01*
X162127594Y-86217862D01*
X162192143Y-86244598D01*
X162231993Y-86301989D01*
X162234488Y-86371814D01*
X162198837Y-86431904D01*
X162185463Y-86442725D01*
X162160861Y-86459951D01*
X161999953Y-86620859D01*
X161869432Y-86807264D01*
X161773261Y-87013502D01*
X161714364Y-87233310D01*
X161694531Y-87459999D01*
X161714364Y-87686689D01*
X161773261Y-87906497D01*
X161869432Y-88112735D01*
X161999953Y-88299140D01*
X162160859Y-88460046D01*
X162336980Y-88583366D01*
X162347266Y-88590568D01*
X162379288Y-88605500D01*
X162405275Y-88617618D01*
X162457714Y-88663791D01*
X162476865Y-88730985D01*
X162456649Y-88797866D01*
X162405275Y-88842382D01*
X162347263Y-88869433D01*
X162160859Y-88999953D01*
X161999953Y-89160859D01*
X161869432Y-89347264D01*
X161773261Y-89553502D01*
X161714364Y-89773310D01*
X161694531Y-90000000D01*
X161714364Y-90226689D01*
X161773261Y-90446497D01*
X161869432Y-90652735D01*
X161999953Y-90839140D01*
X162160859Y-91000046D01*
X162347263Y-91130566D01*
X162347266Y-91130568D01*
X162405275Y-91157618D01*
X162457714Y-91203791D01*
X162476865Y-91270985D01*
X162456649Y-91337866D01*
X162405275Y-91382382D01*
X162347263Y-91409433D01*
X162160859Y-91539953D01*
X161999953Y-91700859D01*
X161869432Y-91887264D01*
X161773261Y-92093502D01*
X161714364Y-92313310D01*
X161694531Y-92540000D01*
X161698471Y-92585037D01*
X161684704Y-92653537D01*
X161636088Y-92703719D01*
X161568059Y-92719652D01*
X161502216Y-92696276D01*
X161495475Y-92690884D01*
X161494471Y-92689880D01*
X161491387Y-92687487D01*
X161491383Y-92687484D01*
X161491290Y-92687412D01*
X161482422Y-92679837D01*
X161450582Y-92649938D01*
X161433024Y-92640285D01*
X161416764Y-92629604D01*
X161400936Y-92617327D01*
X161360851Y-92599980D01*
X161350361Y-92594841D01*
X161312091Y-92573802D01*
X161292691Y-92568821D01*
X161274284Y-92562519D01*
X161255897Y-92554562D01*
X161212758Y-92547729D01*
X161201324Y-92545361D01*
X161159019Y-92534500D01*
X161138984Y-92534500D01*
X161119586Y-92532973D01*
X161112162Y-92531797D01*
X161099805Y-92529840D01*
X161099804Y-92529840D01*
X161066751Y-92532964D01*
X161056325Y-92533950D01*
X161044656Y-92534500D01*
X160524188Y-92534500D01*
X160457149Y-92514815D01*
X160422613Y-92481623D01*
X160310046Y-92320859D01*
X160149140Y-92159953D01*
X159962735Y-92029432D01*
X159756497Y-91933261D01*
X159536689Y-91874364D01*
X159310000Y-91854531D01*
X159083310Y-91874364D01*
X158863502Y-91933261D01*
X158657264Y-92029432D01*
X158470859Y-92159953D01*
X158309953Y-92320859D01*
X158179432Y-92507264D01*
X158083261Y-92713502D01*
X158024364Y-92933310D01*
X158004531Y-93159999D01*
X158024364Y-93386689D01*
X158083261Y-93606497D01*
X158179432Y-93812735D01*
X158309953Y-93999140D01*
X158470859Y-94160046D01*
X158657264Y-94290567D01*
X158657265Y-94290567D01*
X158657266Y-94290568D01*
X158863504Y-94386739D01*
X159083308Y-94445635D01*
X159234435Y-94458857D01*
X159309999Y-94465468D01*
X159309999Y-94465467D01*
X159310000Y-94465468D01*
X159536692Y-94445635D01*
X159756496Y-94386739D01*
X159962734Y-94290568D01*
X160149139Y-94160047D01*
X160310047Y-93999139D01*
X160370468Y-93912847D01*
X160422613Y-93838377D01*
X160477189Y-93794752D01*
X160524188Y-93785500D01*
X160769548Y-93785500D01*
X160836587Y-93805185D01*
X160857229Y-93821819D01*
X161700586Y-94665177D01*
X161734071Y-94726500D01*
X161732680Y-94784950D01*
X161714364Y-94853307D01*
X161694531Y-95080000D01*
X161714364Y-95306689D01*
X161773261Y-95526497D01*
X161869432Y-95732735D01*
X161999953Y-95919140D01*
X162160859Y-96080046D01*
X162347263Y-96210566D01*
X162347266Y-96210568D01*
X162405275Y-96237618D01*
X162457714Y-96283791D01*
X162476865Y-96350985D01*
X162456649Y-96417866D01*
X162405275Y-96462382D01*
X162347263Y-96489433D01*
X162160859Y-96619953D01*
X161999953Y-96780859D01*
X161869432Y-96967264D01*
X161773261Y-97173502D01*
X161714364Y-97393310D01*
X161694531Y-97620000D01*
X161714364Y-97846689D01*
X161773261Y-98066497D01*
X161869432Y-98272735D01*
X161999953Y-98459140D01*
X162160859Y-98620046D01*
X162347266Y-98750567D01*
X162347266Y-98750568D01*
X162405273Y-98777617D01*
X162457713Y-98823789D01*
X162476865Y-98890982D01*
X162456650Y-98957864D01*
X162405276Y-99002380D01*
X162347266Y-99029431D01*
X162160859Y-99159953D01*
X161999953Y-99320859D01*
X161869432Y-99507264D01*
X161773261Y-99713502D01*
X161714364Y-99933310D01*
X161694531Y-100160000D01*
X161714364Y-100386689D01*
X161773261Y-100606497D01*
X161869432Y-100812735D01*
X161999953Y-100999140D01*
X162160859Y-101160046D01*
X162347264Y-101290567D01*
X162347265Y-101290567D01*
X162347266Y-101290568D01*
X162405865Y-101317893D01*
X162458304Y-101364065D01*
X162477456Y-101431259D01*
X162457240Y-101498140D01*
X162405866Y-101542656D01*
X162347522Y-101569863D01*
X162161180Y-101700341D01*
X162000341Y-101861180D01*
X161869865Y-102047519D01*
X161773733Y-102253673D01*
X161721128Y-102449999D01*
X161721128Y-102450000D01*
X162684314Y-102450000D01*
X162672359Y-102461955D01*
X162614835Y-102574852D01*
X162595014Y-102700000D01*
X162614835Y-102825148D01*
X162672359Y-102938045D01*
X162684314Y-102950000D01*
X161721128Y-102950000D01*
X161773733Y-103146326D01*
X161869865Y-103352480D01*
X162000341Y-103538819D01*
X162161180Y-103699658D01*
X162347519Y-103830134D01*
X162405865Y-103857342D01*
X162458304Y-103903514D01*
X162477456Y-103970708D01*
X162457240Y-104037589D01*
X162405866Y-104082105D01*
X162347267Y-104109430D01*
X162160859Y-104239953D01*
X161999953Y-104400859D01*
X161869432Y-104587264D01*
X161773261Y-104793502D01*
X161714364Y-105013310D01*
X161694531Y-105240000D01*
X161714364Y-105466689D01*
X161773261Y-105686497D01*
X161869432Y-105892735D01*
X161999953Y-106079140D01*
X162160859Y-106240046D01*
X162347263Y-106370566D01*
X162347266Y-106370568D01*
X162405273Y-106397617D01*
X162457713Y-106443789D01*
X162476865Y-106510982D01*
X162456650Y-106577864D01*
X162405276Y-106622380D01*
X162347266Y-106649431D01*
X162160859Y-106779953D01*
X161999953Y-106940859D01*
X161869432Y-107127264D01*
X161773261Y-107333502D01*
X161714364Y-107553310D01*
X161694531Y-107779999D01*
X161714364Y-108006689D01*
X161773261Y-108226497D01*
X161869432Y-108432735D01*
X161999953Y-108619140D01*
X162160859Y-108780046D01*
X162347263Y-108910566D01*
X162347266Y-108910568D01*
X162405275Y-108937618D01*
X162457714Y-108983791D01*
X162476865Y-109050985D01*
X162456649Y-109117866D01*
X162405275Y-109162382D01*
X162347263Y-109189433D01*
X162160859Y-109319953D01*
X161999953Y-109480859D01*
X161869432Y-109667264D01*
X161773261Y-109873502D01*
X161714364Y-110093310D01*
X161694531Y-110319999D01*
X161714364Y-110546689D01*
X161773261Y-110766497D01*
X161869432Y-110972735D01*
X161999953Y-111159140D01*
X162160859Y-111320046D01*
X162347263Y-111450566D01*
X162347266Y-111450568D01*
X162405275Y-111477618D01*
X162457714Y-111523791D01*
X162476865Y-111590985D01*
X162456649Y-111657866D01*
X162405275Y-111702382D01*
X162347263Y-111729433D01*
X162160859Y-111859953D01*
X161999953Y-112020859D01*
X161869432Y-112207264D01*
X161773261Y-112413502D01*
X161714364Y-112633310D01*
X161694531Y-112860000D01*
X161714364Y-113086689D01*
X161773261Y-113306497D01*
X161869432Y-113512735D01*
X161999953Y-113699140D01*
X162160859Y-113860046D01*
X162347263Y-113990566D01*
X162347266Y-113990568D01*
X162405273Y-114017617D01*
X162457713Y-114063789D01*
X162476865Y-114130982D01*
X162456650Y-114197864D01*
X162405276Y-114242380D01*
X162347266Y-114269431D01*
X162160859Y-114399953D01*
X161999953Y-114560859D01*
X161869432Y-114747264D01*
X161773261Y-114953502D01*
X161714364Y-115173310D01*
X161694531Y-115400000D01*
X161714364Y-115626689D01*
X161773261Y-115846497D01*
X161869432Y-116052735D01*
X161999953Y-116239140D01*
X162160859Y-116400046D01*
X162231979Y-116449844D01*
X162347266Y-116530568D01*
X162405275Y-116557618D01*
X162457714Y-116603791D01*
X162476865Y-116670985D01*
X162456649Y-116737866D01*
X162405275Y-116782382D01*
X162347263Y-116809433D01*
X162160859Y-116939953D01*
X161999953Y-117100859D01*
X161869432Y-117287264D01*
X161773261Y-117493502D01*
X161714364Y-117713310D01*
X161694531Y-117939999D01*
X161714364Y-118166689D01*
X161773261Y-118386497D01*
X161869432Y-118592735D01*
X161999953Y-118779140D01*
X162160859Y-118940046D01*
X162347264Y-119070567D01*
X162347265Y-119070567D01*
X162347266Y-119070568D01*
X162553504Y-119166739D01*
X162773308Y-119225635D01*
X163000000Y-119245468D01*
X163226692Y-119225635D01*
X163446496Y-119166739D01*
X163652734Y-119070568D01*
X163839139Y-118940047D01*
X164000047Y-118779139D01*
X164130568Y-118592734D01*
X164226739Y-118386496D01*
X164285635Y-118166692D01*
X164305468Y-117940000D01*
X164305225Y-117937228D01*
X164285635Y-117713310D01*
X164285635Y-117713308D01*
X164226739Y-117493504D01*
X164130568Y-117287266D01*
X164124155Y-117278106D01*
X164000046Y-117100859D01*
X163839140Y-116939953D01*
X163652733Y-116809431D01*
X163594725Y-116782382D01*
X163542285Y-116736210D01*
X163523133Y-116669017D01*
X163543348Y-116602135D01*
X163594725Y-116557618D01*
X163652734Y-116530568D01*
X163839139Y-116400047D01*
X164000047Y-116239139D01*
X164130568Y-116052734D01*
X164226739Y-115846496D01*
X164285635Y-115626692D01*
X164305468Y-115400000D01*
X164285635Y-115173308D01*
X164226739Y-114953504D01*
X164130568Y-114747266D01*
X164007430Y-114571404D01*
X164000046Y-114560859D01*
X163839140Y-114399953D01*
X163652733Y-114269431D01*
X163594725Y-114242382D01*
X163542285Y-114196210D01*
X163523133Y-114129017D01*
X163543348Y-114062135D01*
X163594725Y-114017618D01*
X163652734Y-113990568D01*
X163839139Y-113860047D01*
X164000047Y-113699139D01*
X164130568Y-113512734D01*
X164226739Y-113306496D01*
X164285635Y-113086692D01*
X164305468Y-112860000D01*
X164285635Y-112633308D01*
X164226739Y-112413504D01*
X164130568Y-112207266D01*
X164124426Y-112198493D01*
X164000046Y-112020859D01*
X163839140Y-111859953D01*
X163652733Y-111729431D01*
X163594725Y-111702382D01*
X163542285Y-111656210D01*
X163523133Y-111589017D01*
X163543348Y-111522135D01*
X163594725Y-111477618D01*
X163652734Y-111450568D01*
X163839139Y-111320047D01*
X164000047Y-111159139D01*
X164130568Y-110972734D01*
X164226739Y-110766496D01*
X164285635Y-110546692D01*
X164305468Y-110320000D01*
X164285635Y-110093308D01*
X164226739Y-109873504D01*
X164130568Y-109667266D01*
X164120394Y-109652735D01*
X164000046Y-109480859D01*
X163839140Y-109319953D01*
X163652733Y-109189431D01*
X163594725Y-109162382D01*
X163542285Y-109116210D01*
X163523133Y-109049017D01*
X163543348Y-108982135D01*
X163594725Y-108937618D01*
X163652734Y-108910568D01*
X163839139Y-108780047D01*
X164000047Y-108619139D01*
X164130568Y-108432734D01*
X164226739Y-108226496D01*
X164285635Y-108006692D01*
X164305468Y-107780000D01*
X164285635Y-107553308D01*
X164226739Y-107333504D01*
X164130568Y-107127266D01*
X164025963Y-106977872D01*
X164000046Y-106940859D01*
X163839140Y-106779953D01*
X163652733Y-106649431D01*
X163594725Y-106622382D01*
X163542285Y-106576210D01*
X163523133Y-106509017D01*
X163543348Y-106442135D01*
X163594725Y-106397618D01*
X163652734Y-106370568D01*
X163839139Y-106240047D01*
X164000047Y-106079139D01*
X164130568Y-105892734D01*
X164226739Y-105686496D01*
X164285635Y-105466692D01*
X164305468Y-105240000D01*
X164285635Y-105013308D01*
X164226739Y-104793504D01*
X164130568Y-104587266D01*
X164118479Y-104570000D01*
X164000046Y-104400859D01*
X163839140Y-104239953D01*
X163652736Y-104109433D01*
X163594725Y-104082382D01*
X163594132Y-104082105D01*
X163541695Y-104035933D01*
X163522543Y-103968739D01*
X163542759Y-103901858D01*
X163594135Y-103857342D01*
X163652479Y-103830135D01*
X163838819Y-103699658D01*
X163999658Y-103538819D01*
X164130134Y-103352480D01*
X164226266Y-103146326D01*
X164278872Y-102950000D01*
X163315686Y-102950000D01*
X163327641Y-102938045D01*
X163385165Y-102825148D01*
X163404986Y-102700000D01*
X163385165Y-102574852D01*
X163327641Y-102461955D01*
X163315686Y-102450000D01*
X164278872Y-102450000D01*
X164278871Y-102449999D01*
X164226266Y-102253673D01*
X164130134Y-102047519D01*
X163999658Y-101861180D01*
X163838819Y-101700341D01*
X163652482Y-101569866D01*
X163594133Y-101542657D01*
X163541694Y-101496484D01*
X163522543Y-101429290D01*
X163542759Y-101362409D01*
X163594134Y-101317893D01*
X163652734Y-101290568D01*
X163839139Y-101160047D01*
X164000047Y-100999139D01*
X164130568Y-100812734D01*
X164226739Y-100606496D01*
X164285635Y-100386692D01*
X164305468Y-100160000D01*
X164285635Y-99933308D01*
X164226739Y-99713504D01*
X164130568Y-99507266D01*
X164035137Y-99370974D01*
X164000046Y-99320859D01*
X163839140Y-99159953D01*
X163652733Y-99029431D01*
X163594725Y-99002382D01*
X163542285Y-98956210D01*
X163523133Y-98889017D01*
X163543348Y-98822135D01*
X163594725Y-98777618D01*
X163652734Y-98750568D01*
X163839139Y-98620047D01*
X164000047Y-98459139D01*
X164130568Y-98272734D01*
X164226739Y-98066496D01*
X164285635Y-97846692D01*
X164305468Y-97620000D01*
X164285635Y-97393308D01*
X164226739Y-97173504D01*
X164130568Y-96967266D01*
X164120240Y-96952515D01*
X164000046Y-96780859D01*
X163839140Y-96619953D01*
X163652733Y-96489431D01*
X163594725Y-96462382D01*
X163542285Y-96416210D01*
X163523133Y-96349017D01*
X163543348Y-96282135D01*
X163594725Y-96237618D01*
X163652734Y-96210568D01*
X163839139Y-96080047D01*
X164000047Y-95919139D01*
X164130568Y-95732734D01*
X164226739Y-95526496D01*
X164285635Y-95306692D01*
X164305468Y-95080000D01*
X164305468Y-95079999D01*
X164301610Y-95035897D01*
X164315377Y-94967397D01*
X164363992Y-94917214D01*
X164432021Y-94901281D01*
X164497864Y-94924656D01*
X164512819Y-94937409D01*
X164958181Y-95382771D01*
X164991666Y-95444094D01*
X164994500Y-95470452D01*
X164994500Y-103961312D01*
X164974815Y-104028351D01*
X164962650Y-104044284D01*
X164887466Y-104127783D01*
X164792820Y-104291715D01*
X164734326Y-104471742D01*
X164714540Y-104660000D01*
X164734326Y-104848257D01*
X164792820Y-105028284D01*
X164887466Y-105192216D01*
X165014129Y-105332889D01*
X165167269Y-105444151D01*
X165340197Y-105521144D01*
X165525352Y-105560500D01*
X165525354Y-105560500D01*
X165714648Y-105560500D01*
X165850639Y-105531594D01*
X165899803Y-105521144D01*
X166072730Y-105444151D01*
X166190362Y-105358687D01*
X166225870Y-105332889D01*
X166352533Y-105192216D01*
X166447179Y-105028284D01*
X166460376Y-104987668D01*
X166502069Y-104859349D01*
X166541506Y-104801675D01*
X166605865Y-104774476D01*
X166674711Y-104786390D01*
X166726187Y-104833635D01*
X166737929Y-104859347D01*
X166751202Y-104900196D01*
X166792820Y-105028284D01*
X166887464Y-105192213D01*
X166962650Y-105275714D01*
X166992880Y-105338706D01*
X166994500Y-105358687D01*
X166994500Y-117849547D01*
X166974815Y-117916586D01*
X166958181Y-117937228D01*
X164897228Y-119998181D01*
X164835905Y-120031666D01*
X164809547Y-120034500D01*
X159930453Y-120034500D01*
X159863414Y-120014815D01*
X159842772Y-119998181D01*
X158620802Y-118776211D01*
X158607906Y-118760113D01*
X158556775Y-118712098D01*
X158553978Y-118709387D01*
X158537227Y-118692636D01*
X158534471Y-118689880D01*
X158531290Y-118687412D01*
X158522422Y-118679837D01*
X158490582Y-118649938D01*
X158473024Y-118640285D01*
X158456764Y-118629604D01*
X158440936Y-118617327D01*
X158400851Y-118599980D01*
X158390359Y-118594840D01*
X158366993Y-118581994D01*
X158317730Y-118532447D01*
X158314350Y-118525737D01*
X158294035Y-118482171D01*
X158230961Y-118392092D01*
X158158495Y-118288599D01*
X157991401Y-118121505D01*
X157797830Y-117985965D01*
X157583663Y-117886097D01*
X157522501Y-117869709D01*
X157355407Y-117824936D01*
X157120000Y-117804340D01*
X156884592Y-117824936D01*
X156656336Y-117886097D01*
X156442170Y-117985965D01*
X156248598Y-118121505D01*
X156081508Y-118288595D01*
X156081505Y-118288598D01*
X156081505Y-118288599D01*
X156034535Y-118355680D01*
X155951269Y-118474596D01*
X155896692Y-118518220D01*
X155827193Y-118525413D01*
X155764839Y-118493891D01*
X155748119Y-118474595D01*
X155618109Y-118288921D01*
X155451081Y-118121893D01*
X155257576Y-117986399D01*
X155043492Y-117886569D01*
X154830000Y-117829364D01*
X154830000Y-118724498D01*
X154722315Y-118675320D01*
X154615763Y-118660000D01*
X154544237Y-118660000D01*
X154437685Y-118675320D01*
X154330000Y-118724498D01*
X154330000Y-117829364D01*
X154329999Y-117829364D01*
X154116507Y-117886569D01*
X153902421Y-117986400D01*
X153708924Y-118121888D01*
X153586865Y-118243947D01*
X153525542Y-118277431D01*
X153455850Y-118272447D01*
X153399917Y-118230575D01*
X153383002Y-118199598D01*
X153333796Y-118067669D01*
X153247546Y-117952454D01*
X153132331Y-117866204D01*
X152997483Y-117815909D01*
X152937873Y-117809500D01*
X152934550Y-117809500D01*
X151145439Y-117809500D01*
X151145420Y-117809500D01*
X151142128Y-117809501D01*
X151138848Y-117809853D01*
X151138840Y-117809854D01*
X151082515Y-117815909D01*
X150947669Y-117866204D01*
X150832454Y-117952454D01*
X150746204Y-118067668D01*
X150695909Y-118202516D01*
X150691455Y-118243947D01*
X150689500Y-118262127D01*
X150689500Y-118265448D01*
X150689500Y-118265449D01*
X150689500Y-120054560D01*
X150689500Y-120054578D01*
X115120500Y-120054578D01*
X115120500Y-113699999D01*
X128264340Y-113699999D01*
X128284936Y-113935407D01*
X128329709Y-114102501D01*
X128346097Y-114163663D01*
X128445965Y-114377830D01*
X128581505Y-114571401D01*
X128748599Y-114738495D01*
X128934596Y-114868732D01*
X128978219Y-114923307D01*
X128985412Y-114992806D01*
X128953890Y-115055160D01*
X128934595Y-115071880D01*
X128748919Y-115201892D01*
X128581890Y-115368921D01*
X128446400Y-115562421D01*
X128346569Y-115776507D01*
X128289364Y-115989999D01*
X128289364Y-115990000D01*
X129186314Y-115990000D01*
X129160507Y-116030156D01*
X129120000Y-116168111D01*
X129120000Y-116311889D01*
X129160507Y-116449844D01*
X129186314Y-116490000D01*
X128289364Y-116490000D01*
X128346569Y-116703492D01*
X128446399Y-116917576D01*
X128581893Y-117111081D01*
X128748918Y-117278106D01*
X128942423Y-117413600D01*
X129156509Y-117513430D01*
X129370000Y-117570634D01*
X129370000Y-116675501D01*
X129477685Y-116724680D01*
X129584237Y-116740000D01*
X129655763Y-116740000D01*
X129762315Y-116724680D01*
X129870000Y-116675501D01*
X129870000Y-117570633D01*
X130083490Y-117513430D01*
X130297576Y-117413600D01*
X130491081Y-117278106D01*
X130658106Y-117111081D01*
X130793600Y-116917576D01*
X130893430Y-116703492D01*
X130950636Y-116490000D01*
X130053686Y-116490000D01*
X130079493Y-116449844D01*
X130120000Y-116311889D01*
X130120000Y-116168111D01*
X130079493Y-116030156D01*
X130053686Y-115990000D01*
X130950636Y-115990000D01*
X130950635Y-115989999D01*
X130893430Y-115776507D01*
X130793599Y-115562421D01*
X130658109Y-115368921D01*
X130491081Y-115201893D01*
X130305404Y-115071880D01*
X130261780Y-115017303D01*
X130254587Y-114947804D01*
X130286109Y-114885450D01*
X130305399Y-114868734D01*
X130491401Y-114738495D01*
X130658495Y-114571401D01*
X130794035Y-114377830D01*
X130893903Y-114163663D01*
X130955063Y-113935408D01*
X130975659Y-113700000D01*
X130955063Y-113464592D01*
X130893903Y-113236337D01*
X130794035Y-113022171D01*
X130658495Y-112828599D01*
X130491401Y-112661505D01*
X130305839Y-112531573D01*
X130262215Y-112476997D01*
X130255023Y-112407498D01*
X130286545Y-112345144D01*
X130305831Y-112328432D01*
X130491401Y-112198495D01*
X130658495Y-112031401D01*
X130794035Y-111837830D01*
X130893903Y-111623663D01*
X130955063Y-111395408D01*
X130975659Y-111160000D01*
X130971707Y-111114835D01*
X130955063Y-110924592D01*
X130934411Y-110847516D01*
X130893903Y-110696337D01*
X130794035Y-110482171D01*
X130658495Y-110288599D01*
X130491401Y-110121505D01*
X130305839Y-109991573D01*
X130262216Y-109936998D01*
X130255022Y-109867500D01*
X130286545Y-109805145D01*
X130305837Y-109788428D01*
X130491401Y-109658495D01*
X130658495Y-109491401D01*
X130794035Y-109297830D01*
X130893903Y-109083663D01*
X130916320Y-108999999D01*
X151314531Y-108999999D01*
X151334364Y-109226689D01*
X151393261Y-109446497D01*
X151489432Y-109652735D01*
X151619953Y-109839140D01*
X151780859Y-110000046D01*
X151967264Y-110130567D01*
X151967265Y-110130567D01*
X151967266Y-110130568D01*
X151982975Y-110137893D01*
X152035414Y-110184065D01*
X152054566Y-110251259D01*
X152034350Y-110318140D01*
X151982977Y-110362656D01*
X151967517Y-110369865D01*
X151894527Y-110420973D01*
X151894526Y-110420973D01*
X152575600Y-111102046D01*
X152494852Y-111114835D01*
X152381955Y-111172359D01*
X152292359Y-111261955D01*
X152234835Y-111374852D01*
X152222046Y-111455599D01*
X151540973Y-110774526D01*
X151540973Y-110774527D01*
X151489865Y-110847516D01*
X151393733Y-111053672D01*
X151334858Y-111273397D01*
X151315033Y-111500000D01*
X151334858Y-111726602D01*
X151393733Y-111946326D01*
X151489866Y-112152484D01*
X151540972Y-112225471D01*
X151540974Y-112225472D01*
X152222046Y-111544399D01*
X152234835Y-111625148D01*
X152292359Y-111738045D01*
X152381955Y-111827641D01*
X152494852Y-111885165D01*
X152575599Y-111897953D01*
X151894526Y-112579025D01*
X151894526Y-112579026D01*
X151967515Y-112630133D01*
X152173673Y-112726266D01*
X152393397Y-112785141D01*
X152620000Y-112804966D01*
X152846602Y-112785141D01*
X153066326Y-112726266D01*
X153272480Y-112630134D01*
X153345472Y-112579025D01*
X152664401Y-111897953D01*
X152745148Y-111885165D01*
X152858045Y-111827641D01*
X152947641Y-111738045D01*
X153005165Y-111625148D01*
X153017953Y-111544400D01*
X153699025Y-112225472D01*
X153750134Y-112152480D01*
X153846266Y-111946326D01*
X153905141Y-111726602D01*
X153924966Y-111500000D01*
X153905141Y-111273397D01*
X153846266Y-111053673D01*
X153750133Y-110847515D01*
X153699025Y-110774526D01*
X153017953Y-111455598D01*
X153005165Y-111374852D01*
X152947641Y-111261955D01*
X152858045Y-111172359D01*
X152745148Y-111114835D01*
X152664400Y-111102046D01*
X153345472Y-110420974D01*
X153345471Y-110420972D01*
X153272483Y-110369866D01*
X153257023Y-110362657D01*
X153204584Y-110316484D01*
X153185432Y-110249291D01*
X153205648Y-110182410D01*
X153257023Y-110137893D01*
X153272734Y-110130568D01*
X153459139Y-110000047D01*
X153620047Y-109839139D01*
X153750568Y-109652734D01*
X153845106Y-109449999D01*
X156364722Y-109449999D01*
X156383792Y-109667974D01*
X156440425Y-109879331D01*
X156455893Y-109912501D01*
X156532898Y-110077639D01*
X156658402Y-110256877D01*
X156813123Y-110411598D01*
X156992361Y-110537102D01*
X157190670Y-110629575D01*
X157402023Y-110686207D01*
X157620000Y-110705277D01*
X157837977Y-110686207D01*
X158049330Y-110629575D01*
X158247639Y-110537102D01*
X158426877Y-110411598D01*
X158581598Y-110256877D01*
X158707102Y-110077639D01*
X158799575Y-109879330D01*
X158856207Y-109667977D01*
X158875277Y-109450000D01*
X158856207Y-109232023D01*
X158799575Y-109020670D01*
X158707102Y-108822362D01*
X158581598Y-108643123D01*
X158426877Y-108488402D01*
X158247639Y-108362898D01*
X158156205Y-108320261D01*
X158049331Y-108270425D01*
X157837974Y-108213792D01*
X157620000Y-108194722D01*
X157402025Y-108213792D01*
X157190668Y-108270425D01*
X156992361Y-108362898D01*
X156813122Y-108488402D01*
X156658402Y-108643122D01*
X156532898Y-108822361D01*
X156440425Y-109020668D01*
X156383792Y-109232025D01*
X156364722Y-109449999D01*
X153845106Y-109449999D01*
X153846739Y-109446496D01*
X153905635Y-109226692D01*
X153925468Y-109000000D01*
X153905635Y-108773308D01*
X153846739Y-108553504D01*
X153750568Y-108347266D01*
X153666006Y-108226497D01*
X153620046Y-108160859D01*
X153459140Y-107999953D01*
X153272735Y-107869432D01*
X153066497Y-107773261D01*
X152846689Y-107714364D01*
X152620000Y-107694531D01*
X152393310Y-107714364D01*
X152173502Y-107773261D01*
X151967264Y-107869432D01*
X151780859Y-107999953D01*
X151619953Y-108160859D01*
X151489432Y-108347264D01*
X151393261Y-108553502D01*
X151334364Y-108773310D01*
X151314531Y-108999999D01*
X130916320Y-108999999D01*
X130955063Y-108855408D01*
X130975659Y-108620000D01*
X130955063Y-108384592D01*
X130893903Y-108156337D01*
X130794035Y-107942171D01*
X130658495Y-107748599D01*
X130536569Y-107626673D01*
X130503084Y-107565350D01*
X130508068Y-107495658D01*
X130549940Y-107439725D01*
X130580915Y-107422810D01*
X130712331Y-107373796D01*
X130827546Y-107287546D01*
X130913796Y-107172331D01*
X130964091Y-107037483D01*
X130970500Y-106977873D01*
X130970499Y-105182128D01*
X130964091Y-105122517D01*
X130918395Y-105000000D01*
X151314531Y-105000000D01*
X151334364Y-105226689D01*
X151393261Y-105446497D01*
X151489432Y-105652735D01*
X151619953Y-105839140D01*
X151780859Y-106000046D01*
X151967264Y-106130567D01*
X151967265Y-106130567D01*
X151967266Y-106130568D01*
X152173504Y-106226739D01*
X152393308Y-106285635D01*
X152620000Y-106305468D01*
X152846692Y-106285635D01*
X153066496Y-106226739D01*
X153272734Y-106130568D01*
X153459139Y-106000047D01*
X153620047Y-105839139D01*
X153750568Y-105652734D01*
X153846739Y-105446496D01*
X153905635Y-105226692D01*
X153925468Y-105000000D01*
X153925409Y-104999331D01*
X153906918Y-104787974D01*
X153905635Y-104773308D01*
X153851159Y-104570000D01*
X156364722Y-104570000D01*
X156383792Y-104787974D01*
X156440425Y-104999331D01*
X156440737Y-105000000D01*
X156532898Y-105197639D01*
X156658402Y-105376877D01*
X156813123Y-105531598D01*
X156992361Y-105657102D01*
X157190670Y-105749575D01*
X157402023Y-105806207D01*
X157620000Y-105825277D01*
X157837977Y-105806207D01*
X158049330Y-105749575D01*
X158247639Y-105657102D01*
X158426877Y-105531598D01*
X158581598Y-105376877D01*
X158707102Y-105197639D01*
X158799575Y-104999330D01*
X158856207Y-104787977D01*
X158875277Y-104570000D01*
X158856207Y-104352023D01*
X158799575Y-104140670D01*
X158707102Y-103942362D01*
X158581598Y-103763123D01*
X158426877Y-103608402D01*
X158247639Y-103482898D01*
X158156205Y-103440261D01*
X158049331Y-103390425D01*
X157837974Y-103333792D01*
X157620000Y-103314722D01*
X157402025Y-103333792D01*
X157190668Y-103390425D01*
X156992361Y-103482898D01*
X156813122Y-103608402D01*
X156658402Y-103763122D01*
X156532898Y-103942361D01*
X156440425Y-104140668D01*
X156383792Y-104352025D01*
X156364722Y-104570000D01*
X153851159Y-104570000D01*
X153846739Y-104553504D01*
X153750568Y-104347266D01*
X153725236Y-104311087D01*
X153620046Y-104160859D01*
X153459140Y-103999953D01*
X153272735Y-103869432D01*
X153257023Y-103862106D01*
X153204584Y-103815933D01*
X153185432Y-103748740D01*
X153205648Y-103681859D01*
X153257026Y-103637340D01*
X153272484Y-103630131D01*
X153345472Y-103579025D01*
X152664401Y-102897953D01*
X152745148Y-102885165D01*
X152858045Y-102827641D01*
X152947641Y-102738045D01*
X153005165Y-102625148D01*
X153017953Y-102544400D01*
X153699025Y-103225472D01*
X153750134Y-103152480D01*
X153846266Y-102946326D01*
X153905141Y-102726602D01*
X153924966Y-102499999D01*
X153905141Y-102273397D01*
X153846266Y-102053673D01*
X153750133Y-101847515D01*
X153699025Y-101774526D01*
X153017953Y-102455598D01*
X153005165Y-102374852D01*
X152947641Y-102261955D01*
X152858045Y-102172359D01*
X152745148Y-102114835D01*
X152664399Y-102102045D01*
X153345472Y-101420973D01*
X153345471Y-101420972D01*
X153272484Y-101369866D01*
X153066326Y-101273733D01*
X152846602Y-101214858D01*
X152620000Y-101195033D01*
X152393397Y-101214858D01*
X152173672Y-101273733D01*
X151967516Y-101369865D01*
X151894526Y-101420973D01*
X152575598Y-102102046D01*
X152494852Y-102114835D01*
X152381955Y-102172359D01*
X152292359Y-102261955D01*
X152234835Y-102374852D01*
X152222046Y-102455599D01*
X151540973Y-101774526D01*
X151540973Y-101774527D01*
X151489865Y-101847516D01*
X151393733Y-102053672D01*
X151334858Y-102273397D01*
X151315033Y-102500000D01*
X151334858Y-102726602D01*
X151393733Y-102946326D01*
X151489866Y-103152484D01*
X151540972Y-103225471D01*
X151540974Y-103225472D01*
X152222046Y-102544399D01*
X152234835Y-102625148D01*
X152292359Y-102738045D01*
X152381955Y-102827641D01*
X152494852Y-102885165D01*
X152575599Y-102897953D01*
X151894526Y-103579025D01*
X151894526Y-103579026D01*
X151967515Y-103630133D01*
X151982975Y-103637342D01*
X152035414Y-103683514D01*
X152054566Y-103750708D01*
X152034350Y-103817589D01*
X151982978Y-103862104D01*
X151967268Y-103869429D01*
X151780859Y-103999953D01*
X151619953Y-104160859D01*
X151489432Y-104347264D01*
X151393261Y-104553502D01*
X151334364Y-104773310D01*
X151314531Y-105000000D01*
X130918395Y-105000000D01*
X130913796Y-104987669D01*
X130827546Y-104872454D01*
X130712331Y-104786204D01*
X130577483Y-104735909D01*
X130517873Y-104729500D01*
X130514550Y-104729500D01*
X128725439Y-104729500D01*
X128725420Y-104729500D01*
X128722128Y-104729501D01*
X128718848Y-104729853D01*
X128718840Y-104729854D01*
X128662515Y-104735909D01*
X128527669Y-104786204D01*
X128412454Y-104872454D01*
X128326204Y-104987668D01*
X128275910Y-105122515D01*
X128275909Y-105122517D01*
X128269500Y-105182127D01*
X128269500Y-105185448D01*
X128269500Y-105185449D01*
X128269500Y-106974560D01*
X128269500Y-106974578D01*
X128269501Y-106977872D01*
X128275909Y-107037483D01*
X128326204Y-107172331D01*
X128412454Y-107287546D01*
X128527669Y-107373796D01*
X128639907Y-107415658D01*
X128659082Y-107422810D01*
X128715016Y-107464681D01*
X128739433Y-107530146D01*
X128724581Y-107598419D01*
X128703431Y-107626673D01*
X128581503Y-107748601D01*
X128445965Y-107942170D01*
X128346097Y-108156336D01*
X128284936Y-108384592D01*
X128264340Y-108620000D01*
X128284936Y-108855407D01*
X128329218Y-109020668D01*
X128346097Y-109083663D01*
X128445965Y-109297830D01*
X128581505Y-109491401D01*
X128748599Y-109658495D01*
X128934160Y-109788426D01*
X128977783Y-109843002D01*
X128984976Y-109912501D01*
X128953454Y-109974855D01*
X128934158Y-109991575D01*
X128811247Y-110077639D01*
X128748595Y-110121508D01*
X128581505Y-110288598D01*
X128445965Y-110482170D01*
X128346097Y-110696336D01*
X128284936Y-110924592D01*
X128264340Y-111159999D01*
X128284936Y-111395407D01*
X128329709Y-111562502D01*
X128346097Y-111623663D01*
X128445965Y-111837830D01*
X128581505Y-112031401D01*
X128748599Y-112198495D01*
X128934160Y-112328426D01*
X128977783Y-112383002D01*
X128984976Y-112452501D01*
X128953454Y-112514855D01*
X128934159Y-112531575D01*
X128748595Y-112661508D01*
X128581505Y-112828598D01*
X128445965Y-113022170D01*
X128346097Y-113236336D01*
X128284936Y-113464592D01*
X128264340Y-113699999D01*
X115120500Y-113699999D01*
X115120500Y-100700000D01*
X120774434Y-100700000D01*
X120794631Y-100879251D01*
X120794631Y-100879253D01*
X120794632Y-100879255D01*
X120854211Y-101049522D01*
X120854212Y-101049523D01*
X120950185Y-101202264D01*
X121077735Y-101329814D01*
X121077737Y-101329815D01*
X121077738Y-101329816D01*
X121230478Y-101425789D01*
X121400745Y-101485368D01*
X121535046Y-101500500D01*
X121538530Y-101500500D01*
X121621470Y-101500500D01*
X121624954Y-101500500D01*
X121759255Y-101485368D01*
X121929522Y-101425789D01*
X122082262Y-101329816D01*
X122209816Y-101202262D01*
X122305789Y-101049522D01*
X122316116Y-101020008D01*
X122356836Y-100963234D01*
X122421788Y-100937485D01*
X122490350Y-100950940D01*
X122540753Y-100999327D01*
X122553731Y-101032016D01*
X122593126Y-101196110D01*
X122600892Y-101214858D01*
X122689534Y-101428859D01*
X122821164Y-101643659D01*
X122984776Y-101835224D01*
X123176341Y-101998836D01*
X123391141Y-102130466D01*
X123623889Y-102226873D01*
X123868852Y-102285683D01*
X124120000Y-102305449D01*
X124371148Y-102285683D01*
X124616111Y-102226873D01*
X124848859Y-102130466D01*
X125063659Y-101998836D01*
X125255224Y-101835224D01*
X125418836Y-101643659D01*
X125550466Y-101428859D01*
X125646873Y-101196111D01*
X125705683Y-100951148D01*
X125725449Y-100700000D01*
X125705683Y-100448852D01*
X125646873Y-100203889D01*
X125550466Y-99971141D01*
X125469478Y-99838982D01*
X125451234Y-99771537D01*
X125472350Y-99704935D01*
X125500896Y-99674926D01*
X125577546Y-99617546D01*
X125663796Y-99502331D01*
X125714091Y-99367483D01*
X125720500Y-99307873D01*
X125720499Y-97950000D01*
X128814531Y-97950000D01*
X128834364Y-98176689D01*
X128893261Y-98396497D01*
X128989432Y-98602735D01*
X129119953Y-98789140D01*
X129280859Y-98950046D01*
X129467264Y-99080567D01*
X129467265Y-99080567D01*
X129467266Y-99080568D01*
X129482975Y-99087893D01*
X129535414Y-99134065D01*
X129554566Y-99201259D01*
X129534350Y-99268140D01*
X129482977Y-99312656D01*
X129467517Y-99319865D01*
X129394527Y-99370973D01*
X129394526Y-99370973D01*
X130075600Y-100052046D01*
X129994852Y-100064835D01*
X129881955Y-100122359D01*
X129792359Y-100211955D01*
X129734835Y-100324852D01*
X129722046Y-100405599D01*
X129040973Y-99724526D01*
X129040973Y-99724527D01*
X128989865Y-99797516D01*
X128893733Y-100003672D01*
X128834858Y-100223397D01*
X128815033Y-100449999D01*
X128834858Y-100676602D01*
X128893733Y-100896326D01*
X128989866Y-101102484D01*
X129040972Y-101175471D01*
X129040974Y-101175472D01*
X129722046Y-100494399D01*
X129734835Y-100575148D01*
X129792359Y-100688045D01*
X129881955Y-100777641D01*
X129994852Y-100835165D01*
X130075599Y-100847953D01*
X129394526Y-101529025D01*
X129394526Y-101529026D01*
X129467515Y-101580133D01*
X129673673Y-101676266D01*
X129893397Y-101735141D01*
X130120000Y-101754966D01*
X130346602Y-101735141D01*
X130566326Y-101676266D01*
X130772480Y-101580134D01*
X130845472Y-101529025D01*
X130164401Y-100847953D01*
X130245148Y-100835165D01*
X130358045Y-100777641D01*
X130447641Y-100688045D01*
X130505165Y-100575148D01*
X130517953Y-100494400D01*
X131199025Y-101175472D01*
X131250134Y-101102480D01*
X131346266Y-100896326D01*
X131405141Y-100676602D01*
X131424966Y-100449999D01*
X131405141Y-100223397D01*
X131346266Y-100003673D01*
X131250133Y-99797515D01*
X131199025Y-99724526D01*
X130517953Y-100405598D01*
X130505165Y-100324852D01*
X130447641Y-100211955D01*
X130358045Y-100122359D01*
X130245148Y-100064835D01*
X130164400Y-100052046D01*
X130845472Y-99370974D01*
X130845471Y-99370972D01*
X130772483Y-99319866D01*
X130757023Y-99312657D01*
X130704584Y-99266484D01*
X130685432Y-99199291D01*
X130705648Y-99132410D01*
X130757023Y-99087893D01*
X130772734Y-99080568D01*
X130959139Y-98950047D01*
X131120047Y-98789139D01*
X131250568Y-98602734D01*
X131346739Y-98396496D01*
X131405635Y-98176692D01*
X131425468Y-97950000D01*
X131405635Y-97723308D01*
X131346739Y-97503504D01*
X131250568Y-97297266D01*
X131163909Y-97173502D01*
X131120046Y-97110859D01*
X130959140Y-96949953D01*
X130772735Y-96819432D01*
X130566497Y-96723261D01*
X130346689Y-96664364D01*
X130119999Y-96644531D01*
X129893310Y-96664364D01*
X129673502Y-96723261D01*
X129467264Y-96819432D01*
X129280859Y-96949953D01*
X129119953Y-97110859D01*
X128989432Y-97297264D01*
X128893261Y-97503502D01*
X128834364Y-97723310D01*
X128814531Y-97950000D01*
X125720499Y-97950000D01*
X125720499Y-97012128D01*
X125714091Y-96952517D01*
X125663796Y-96817669D01*
X125577546Y-96702454D01*
X125462331Y-96616204D01*
X125327483Y-96565909D01*
X125267873Y-96559500D01*
X125264550Y-96559500D01*
X122975439Y-96559500D01*
X122975420Y-96559500D01*
X122972128Y-96559501D01*
X122968848Y-96559853D01*
X122968840Y-96559854D01*
X122912515Y-96565909D01*
X122777669Y-96616204D01*
X122662454Y-96702454D01*
X122576204Y-96817668D01*
X122525910Y-96952515D01*
X122525909Y-96952517D01*
X122519500Y-97012127D01*
X122519500Y-97015430D01*
X122519499Y-97015449D01*
X122519500Y-97720184D01*
X122499815Y-97787223D01*
X122447011Y-97832978D01*
X122377853Y-97842922D01*
X122314297Y-97813897D01*
X122290506Y-97786156D01*
X122251017Y-97723310D01*
X122209816Y-97657738D01*
X122209815Y-97657737D01*
X122209814Y-97657735D01*
X122082264Y-97530185D01*
X122019867Y-97490978D01*
X121929522Y-97434211D01*
X121759255Y-97374632D01*
X121759251Y-97374631D01*
X121759250Y-97374631D01*
X121628420Y-97359890D01*
X121628410Y-97359889D01*
X121624954Y-97359500D01*
X121535046Y-97359500D01*
X121531590Y-97359889D01*
X121531579Y-97359890D01*
X121400749Y-97374631D01*
X121400746Y-97374631D01*
X121400745Y-97374632D01*
X121230478Y-97434211D01*
X121230476Y-97434211D01*
X121230476Y-97434212D01*
X121077735Y-97530185D01*
X120950185Y-97657735D01*
X120868823Y-97787223D01*
X120854211Y-97810478D01*
X120841540Y-97846689D01*
X120794631Y-97980748D01*
X120774434Y-98160000D01*
X120794631Y-98339251D01*
X120794631Y-98339253D01*
X120794632Y-98339255D01*
X120854211Y-98509522D01*
X120854212Y-98509523D01*
X120950185Y-98662264D01*
X121077735Y-98789814D01*
X121077737Y-98789815D01*
X121077738Y-98789816D01*
X121230478Y-98885789D01*
X121400745Y-98945368D01*
X121535046Y-98960500D01*
X121538530Y-98960500D01*
X121621470Y-98960500D01*
X121624954Y-98960500D01*
X121759255Y-98945368D01*
X121929522Y-98885789D01*
X122082262Y-98789816D01*
X122209816Y-98662262D01*
X122290507Y-98533843D01*
X122342840Y-98487552D01*
X122411893Y-98476903D01*
X122475742Y-98505278D01*
X122514114Y-98563668D01*
X122519500Y-98599815D01*
X122519500Y-99304560D01*
X122519500Y-99304578D01*
X122519501Y-99307872D01*
X122519853Y-99311152D01*
X122519854Y-99311159D01*
X122525909Y-99367484D01*
X122527211Y-99370974D01*
X122576204Y-99502331D01*
X122580088Y-99507519D01*
X122662454Y-99617546D01*
X122739104Y-99674926D01*
X122780975Y-99730860D01*
X122785959Y-99800552D01*
X122770521Y-99838982D01*
X122689534Y-99971141D01*
X122593126Y-100203889D01*
X122553731Y-100367983D01*
X122518940Y-100428575D01*
X122456914Y-100460739D01*
X122387345Y-100454263D01*
X122332321Y-100411203D01*
X122316117Y-100379994D01*
X122305789Y-100350478D01*
X122209816Y-100197738D01*
X122209815Y-100197737D01*
X122209814Y-100197735D01*
X122082264Y-100070185D01*
X121976409Y-100003672D01*
X121929522Y-99974211D01*
X121759255Y-99914632D01*
X121759251Y-99914631D01*
X121759250Y-99914631D01*
X121628420Y-99899890D01*
X121628410Y-99899889D01*
X121624954Y-99899500D01*
X121535046Y-99899500D01*
X121531590Y-99899889D01*
X121531579Y-99899890D01*
X121400749Y-99914631D01*
X121400746Y-99914631D01*
X121400745Y-99914632D01*
X121230478Y-99974211D01*
X121230476Y-99974211D01*
X121230476Y-99974212D01*
X121077735Y-100070185D01*
X120950185Y-100197735D01*
X120870313Y-100324852D01*
X120854211Y-100350478D01*
X120819387Y-100449999D01*
X120794631Y-100520748D01*
X120774434Y-100700000D01*
X115120500Y-100700000D01*
X115120500Y-93105000D01*
X127344531Y-93105000D01*
X127364364Y-93331689D01*
X127423261Y-93551497D01*
X127519432Y-93757735D01*
X127649953Y-93944140D01*
X127810859Y-94105046D01*
X127997264Y-94235567D01*
X127997265Y-94235567D01*
X127997266Y-94235568D01*
X128203504Y-94331739D01*
X128423308Y-94390635D01*
X128574436Y-94403856D01*
X128649999Y-94410468D01*
X128649999Y-94410467D01*
X128650000Y-94410468D01*
X128876692Y-94390635D01*
X129096496Y-94331739D01*
X129302734Y-94235568D01*
X129489139Y-94105047D01*
X129650047Y-93944139D01*
X129780568Y-93757734D01*
X129876739Y-93551496D01*
X129935635Y-93331692D01*
X129955468Y-93105000D01*
X134964531Y-93105000D01*
X134984364Y-93331689D01*
X135043261Y-93551497D01*
X135139432Y-93757735D01*
X135269953Y-93944140D01*
X135430859Y-94105046D01*
X135617264Y-94235567D01*
X135617265Y-94235567D01*
X135617266Y-94235568D01*
X135823504Y-94331739D01*
X136043308Y-94390635D01*
X136270000Y-94410468D01*
X136496692Y-94390635D01*
X136716496Y-94331739D01*
X136922734Y-94235568D01*
X137109139Y-94105047D01*
X137270047Y-93944139D01*
X137400568Y-93757734D01*
X137496739Y-93551496D01*
X137555635Y-93331692D01*
X137570656Y-93159999D01*
X138804531Y-93159999D01*
X138824364Y-93386689D01*
X138883261Y-93606497D01*
X138979432Y-93812735D01*
X139109953Y-93999140D01*
X139270859Y-94160046D01*
X139457264Y-94290567D01*
X139457265Y-94290567D01*
X139457266Y-94290568D01*
X139663504Y-94386739D01*
X139883308Y-94445635D01*
X140034435Y-94458857D01*
X140109999Y-94465468D01*
X140109999Y-94465467D01*
X140110000Y-94465468D01*
X140336692Y-94445635D01*
X140556496Y-94386739D01*
X140762734Y-94290568D01*
X140949139Y-94160047D01*
X141110047Y-93999139D01*
X141240568Y-93812734D01*
X141336739Y-93606496D01*
X141395635Y-93386692D01*
X141415468Y-93160000D01*
X146424531Y-93160000D01*
X146444364Y-93386689D01*
X146503261Y-93606497D01*
X146599432Y-93812735D01*
X146729953Y-93999140D01*
X146890859Y-94160046D01*
X147077264Y-94290567D01*
X147077265Y-94290567D01*
X147077266Y-94290568D01*
X147283504Y-94386739D01*
X147503308Y-94445635D01*
X147730000Y-94465468D01*
X147956692Y-94445635D01*
X148176496Y-94386739D01*
X148382734Y-94290568D01*
X148569139Y-94160047D01*
X148730047Y-93999139D01*
X148860568Y-93812734D01*
X148956739Y-93606496D01*
X149015635Y-93386692D01*
X149035468Y-93160000D01*
X149035468Y-93159999D01*
X150384531Y-93159999D01*
X150404364Y-93386689D01*
X150463261Y-93606497D01*
X150559432Y-93812735D01*
X150689953Y-93999140D01*
X150850859Y-94160046D01*
X151037264Y-94290567D01*
X151037265Y-94290567D01*
X151037266Y-94290568D01*
X151243504Y-94386739D01*
X151463308Y-94445635D01*
X151614435Y-94458857D01*
X151689999Y-94465468D01*
X151689999Y-94465467D01*
X151690000Y-94465468D01*
X151916692Y-94445635D01*
X152136496Y-94386739D01*
X152342734Y-94290568D01*
X152529139Y-94160047D01*
X152690047Y-93999139D01*
X152820568Y-93812734D01*
X152916739Y-93606496D01*
X152975635Y-93386692D01*
X152995468Y-93160000D01*
X152975635Y-92933308D01*
X152916739Y-92713504D01*
X152820568Y-92507266D01*
X152690047Y-92320861D01*
X152690046Y-92320859D01*
X152529140Y-92159953D01*
X152342735Y-92029432D01*
X152136497Y-91933261D01*
X151916689Y-91874364D01*
X151689999Y-91854531D01*
X151463310Y-91874364D01*
X151243502Y-91933261D01*
X151037264Y-92029432D01*
X150850859Y-92159953D01*
X150689953Y-92320859D01*
X150559432Y-92507264D01*
X150463261Y-92713502D01*
X150404364Y-92933310D01*
X150384531Y-93159999D01*
X149035468Y-93159999D01*
X149015635Y-92933308D01*
X148956739Y-92713504D01*
X148860568Y-92507266D01*
X148730047Y-92320861D01*
X148730046Y-92320859D01*
X148569140Y-92159953D01*
X148382735Y-92029432D01*
X148176497Y-91933261D01*
X147956689Y-91874364D01*
X147730000Y-91854531D01*
X147503310Y-91874364D01*
X147283502Y-91933261D01*
X147077264Y-92029432D01*
X146890859Y-92159953D01*
X146729953Y-92320859D01*
X146599432Y-92507264D01*
X146503261Y-92713502D01*
X146444364Y-92933310D01*
X146424531Y-93160000D01*
X141415468Y-93160000D01*
X141395635Y-92933308D01*
X141336739Y-92713504D01*
X141240568Y-92507266D01*
X141110047Y-92320861D01*
X141110046Y-92320859D01*
X140949140Y-92159953D01*
X140762735Y-92029432D01*
X140556497Y-91933261D01*
X140336689Y-91874364D01*
X140110000Y-91854531D01*
X139883310Y-91874364D01*
X139663502Y-91933261D01*
X139457264Y-92029432D01*
X139270859Y-92159953D01*
X139109953Y-92320859D01*
X138979432Y-92507264D01*
X138883261Y-92713502D01*
X138824364Y-92933310D01*
X138804531Y-93159999D01*
X137570656Y-93159999D01*
X137575468Y-93105000D01*
X137555635Y-92878308D01*
X137496739Y-92658504D01*
X137400568Y-92452266D01*
X137303270Y-92313308D01*
X137270046Y-92265859D01*
X137109140Y-92104953D01*
X136922735Y-91974432D01*
X136716497Y-91878261D01*
X136496689Y-91819364D01*
X136269999Y-91799531D01*
X136043310Y-91819364D01*
X135823502Y-91878261D01*
X135617264Y-91974432D01*
X135430859Y-92104953D01*
X135269953Y-92265859D01*
X135139432Y-92452264D01*
X135043261Y-92658502D01*
X134984364Y-92878310D01*
X134964531Y-93105000D01*
X129955468Y-93105000D01*
X129935635Y-92878308D01*
X129876739Y-92658504D01*
X129780568Y-92452266D01*
X129683270Y-92313308D01*
X129650046Y-92265859D01*
X129489140Y-92104953D01*
X129302735Y-91974432D01*
X129096497Y-91878261D01*
X128876689Y-91819364D01*
X128649999Y-91799531D01*
X128423310Y-91819364D01*
X128203502Y-91878261D01*
X127997264Y-91974432D01*
X127810859Y-92104953D01*
X127649953Y-92265859D01*
X127519432Y-92452264D01*
X127423261Y-92658502D01*
X127364364Y-92878310D01*
X127344531Y-93105000D01*
X115120500Y-93105000D01*
X115120500Y-88149578D01*
X127127000Y-88149578D01*
X127127001Y-88152872D01*
X127127353Y-88156152D01*
X127127354Y-88156159D01*
X127133409Y-88212484D01*
X127153923Y-88267483D01*
X127183704Y-88347331D01*
X127269954Y-88462546D01*
X127385169Y-88548796D01*
X127520017Y-88599091D01*
X127579627Y-88605500D01*
X129580372Y-88605499D01*
X129639983Y-88599091D01*
X129774831Y-88548796D01*
X129890046Y-88462546D01*
X129976296Y-88347331D01*
X129987725Y-88316685D01*
X130029596Y-88260753D01*
X130095060Y-88236336D01*
X130163333Y-88251188D01*
X130180065Y-88262163D01*
X130322561Y-88373072D01*
X130534336Y-88487679D01*
X130762087Y-88565866D01*
X130999601Y-88605500D01*
X131240399Y-88605500D01*
X131477913Y-88565866D01*
X131705664Y-88487679D01*
X131917439Y-88373072D01*
X132107463Y-88225171D01*
X132270551Y-88048010D01*
X132286490Y-88023612D01*
X132339634Y-87978257D01*
X132408865Y-87968833D01*
X132472201Y-87998334D01*
X132494107Y-88023614D01*
X132509846Y-88047704D01*
X132672873Y-88224798D01*
X132862835Y-88372651D01*
X133074539Y-88487219D01*
X133302208Y-88565379D01*
X133410000Y-88583366D01*
X133410000Y-87596683D01*
X133438819Y-87614209D01*
X133584404Y-87655000D01*
X133697622Y-87655000D01*
X133809783Y-87639584D01*
X133910000Y-87596053D01*
X133910000Y-88583366D01*
X134017791Y-88565379D01*
X134245460Y-88487219D01*
X134457164Y-88372651D01*
X134647126Y-88224798D01*
X134665740Y-88204578D01*
X138587000Y-88204578D01*
X138587001Y-88207872D01*
X138587353Y-88211152D01*
X138587354Y-88211159D01*
X138593409Y-88267484D01*
X138618556Y-88334906D01*
X138643704Y-88402331D01*
X138729954Y-88517546D01*
X138845169Y-88603796D01*
X138980017Y-88654091D01*
X139039627Y-88660500D01*
X141040372Y-88660499D01*
X141099983Y-88654091D01*
X141234831Y-88603796D01*
X141350046Y-88517546D01*
X141436296Y-88402331D01*
X141447725Y-88371685D01*
X141489596Y-88315753D01*
X141555060Y-88291336D01*
X141623333Y-88306188D01*
X141640065Y-88317163D01*
X141782561Y-88428072D01*
X141994336Y-88542679D01*
X142222087Y-88620866D01*
X142459601Y-88660500D01*
X142700399Y-88660500D01*
X142937913Y-88620866D01*
X143165664Y-88542679D01*
X143377439Y-88428072D01*
X143567463Y-88280171D01*
X143730551Y-88103010D01*
X143746490Y-88078612D01*
X143799634Y-88033257D01*
X143868865Y-88023833D01*
X143932201Y-88053334D01*
X143954107Y-88078614D01*
X143969846Y-88102704D01*
X144132873Y-88279798D01*
X144322835Y-88427651D01*
X144534539Y-88542219D01*
X144762208Y-88620379D01*
X144870000Y-88638366D01*
X144870000Y-87651683D01*
X144898819Y-87669209D01*
X145044404Y-87710000D01*
X145157622Y-87710000D01*
X145269783Y-87694584D01*
X145370000Y-87651053D01*
X145370000Y-88638365D01*
X145477791Y-88620379D01*
X145705460Y-88542219D01*
X145917164Y-88427651D01*
X146107126Y-88279798D01*
X146176371Y-88204578D01*
X150087000Y-88204578D01*
X150087001Y-88207872D01*
X150087353Y-88211152D01*
X150087354Y-88211159D01*
X150093409Y-88267484D01*
X150118556Y-88334906D01*
X150143704Y-88402331D01*
X150229954Y-88517546D01*
X150345169Y-88603796D01*
X150480017Y-88654091D01*
X150539627Y-88660500D01*
X152540372Y-88660499D01*
X152599983Y-88654091D01*
X152734831Y-88603796D01*
X152850046Y-88517546D01*
X152936296Y-88402331D01*
X152947725Y-88371685D01*
X152989596Y-88315753D01*
X153055060Y-88291336D01*
X153123333Y-88306188D01*
X153140065Y-88317163D01*
X153282561Y-88428072D01*
X153494336Y-88542679D01*
X153722087Y-88620866D01*
X153959601Y-88660500D01*
X154200399Y-88660500D01*
X154437913Y-88620866D01*
X154665664Y-88542679D01*
X154877439Y-88428072D01*
X155067463Y-88280171D01*
X155230551Y-88103010D01*
X155246490Y-88078612D01*
X155299634Y-88033257D01*
X155368865Y-88023833D01*
X155432201Y-88053334D01*
X155454107Y-88078614D01*
X155469846Y-88102704D01*
X155632873Y-88279798D01*
X155822835Y-88427651D01*
X156034539Y-88542219D01*
X156262208Y-88620379D01*
X156370000Y-88638366D01*
X156370000Y-87651683D01*
X156398819Y-87669209D01*
X156544404Y-87710000D01*
X156657622Y-87710000D01*
X156769783Y-87694584D01*
X156870000Y-87651053D01*
X156870000Y-88638365D01*
X156977791Y-88620379D01*
X157205460Y-88542219D01*
X157417164Y-88427651D01*
X157607126Y-88279798D01*
X157770151Y-88102707D01*
X157901815Y-87901180D01*
X157998506Y-87680744D01*
X158057599Y-87447393D01*
X158060697Y-87410000D01*
X157114852Y-87410000D01*
X157163559Y-87272953D01*
X157173877Y-87122114D01*
X157143116Y-86974085D01*
X157109910Y-86910000D01*
X158060697Y-86910000D01*
X158057599Y-86872606D01*
X157998506Y-86639255D01*
X157901815Y-86418819D01*
X157770151Y-86217292D01*
X157607126Y-86040201D01*
X157417164Y-85892348D01*
X157205460Y-85777780D01*
X156977792Y-85699619D01*
X156870000Y-85681633D01*
X156870000Y-86668316D01*
X156841181Y-86650791D01*
X156695596Y-86610000D01*
X156582378Y-86610000D01*
X156470217Y-86625416D01*
X156370000Y-86668946D01*
X156370000Y-85681633D01*
X156369999Y-85681633D01*
X156262207Y-85699619D01*
X156034539Y-85777780D01*
X155822835Y-85892348D01*
X155632873Y-86040201D01*
X155469846Y-86217294D01*
X155454106Y-86241387D01*
X155400959Y-86286743D01*
X155331728Y-86296166D01*
X155268392Y-86266663D01*
X155246490Y-86241387D01*
X155230551Y-86216990D01*
X155067463Y-86039829D01*
X154877439Y-85891928D01*
X154665664Y-85777321D01*
X154665660Y-85777319D01*
X154665659Y-85777319D01*
X154437915Y-85699134D01*
X154200399Y-85659500D01*
X153959601Y-85659500D01*
X153722084Y-85699134D01*
X153494340Y-85777319D01*
X153494336Y-85777320D01*
X153494336Y-85777321D01*
X153282561Y-85891928D01*
X153282559Y-85891928D01*
X153282556Y-85891931D01*
X153140067Y-86002833D01*
X153075073Y-86028475D01*
X153006533Y-86014908D01*
X152956209Y-85966439D01*
X152947727Y-85948318D01*
X152936296Y-85917669D01*
X152850046Y-85802454D01*
X152734831Y-85716204D01*
X152599983Y-85665909D01*
X152540373Y-85659500D01*
X152537050Y-85659500D01*
X150542939Y-85659500D01*
X150542920Y-85659500D01*
X150539628Y-85659501D01*
X150536348Y-85659853D01*
X150536340Y-85659854D01*
X150480015Y-85665909D01*
X150345169Y-85716204D01*
X150229954Y-85802454D01*
X150143704Y-85917668D01*
X150093409Y-86052516D01*
X150093268Y-86053833D01*
X150087000Y-86112127D01*
X150087000Y-86115448D01*
X150087000Y-86115449D01*
X150087000Y-88204560D01*
X150087000Y-88204578D01*
X146176371Y-88204578D01*
X146270151Y-88102707D01*
X146401815Y-87901180D01*
X146498506Y-87680744D01*
X146557599Y-87447393D01*
X146560697Y-87410000D01*
X145614852Y-87410000D01*
X145663559Y-87272953D01*
X145673877Y-87122114D01*
X145643116Y-86974085D01*
X145609910Y-86910000D01*
X146560697Y-86910000D01*
X146557599Y-86872606D01*
X146498506Y-86639255D01*
X146401815Y-86418819D01*
X146270151Y-86217292D01*
X146107126Y-86040201D01*
X145917164Y-85892348D01*
X145705460Y-85777780D01*
X145477792Y-85699619D01*
X145370000Y-85681633D01*
X145370000Y-86668316D01*
X145341181Y-86650791D01*
X145195596Y-86610000D01*
X145082378Y-86610000D01*
X144970217Y-86625416D01*
X144870000Y-86668946D01*
X144870000Y-85681633D01*
X144869999Y-85681633D01*
X144762207Y-85699619D01*
X144534539Y-85777780D01*
X144322835Y-85892348D01*
X144132873Y-86040201D01*
X143969846Y-86217294D01*
X143954106Y-86241387D01*
X143900959Y-86286743D01*
X143831728Y-86296166D01*
X143768392Y-86266663D01*
X143746490Y-86241387D01*
X143730551Y-86216990D01*
X143567463Y-86039829D01*
X143377439Y-85891928D01*
X143165664Y-85777321D01*
X143165660Y-85777319D01*
X143165659Y-85777319D01*
X142937915Y-85699134D01*
X142700399Y-85659500D01*
X142459601Y-85659500D01*
X142222084Y-85699134D01*
X141994340Y-85777319D01*
X141994336Y-85777320D01*
X141994336Y-85777321D01*
X141782561Y-85891928D01*
X141782559Y-85891928D01*
X141782556Y-85891931D01*
X141640067Y-86002833D01*
X141575073Y-86028475D01*
X141506533Y-86014908D01*
X141456209Y-85966439D01*
X141447727Y-85948318D01*
X141436296Y-85917669D01*
X141350046Y-85802454D01*
X141234831Y-85716204D01*
X141099983Y-85665909D01*
X141040373Y-85659500D01*
X141037050Y-85659500D01*
X139042939Y-85659500D01*
X139042920Y-85659500D01*
X139039628Y-85659501D01*
X139036348Y-85659853D01*
X139036340Y-85659854D01*
X138980015Y-85665909D01*
X138845169Y-85716204D01*
X138729954Y-85802454D01*
X138643704Y-85917668D01*
X138593409Y-86052516D01*
X138593268Y-86053833D01*
X138587000Y-86112127D01*
X138587000Y-86115448D01*
X138587000Y-86115449D01*
X138587000Y-88204560D01*
X138587000Y-88204578D01*
X134665740Y-88204578D01*
X134810151Y-88047707D01*
X134941815Y-87846180D01*
X135038506Y-87625744D01*
X135097599Y-87392393D01*
X135100697Y-87355000D01*
X134154852Y-87355000D01*
X134203559Y-87217953D01*
X134213877Y-87067114D01*
X134183116Y-86919085D01*
X134149910Y-86855000D01*
X135100697Y-86855000D01*
X135097599Y-86817606D01*
X135038506Y-86584255D01*
X134941815Y-86363819D01*
X134810151Y-86162292D01*
X134647126Y-85985201D01*
X134457164Y-85837348D01*
X134245460Y-85722780D01*
X134017792Y-85644619D01*
X133910000Y-85626633D01*
X133910000Y-86613316D01*
X133881181Y-86595791D01*
X133735596Y-86555000D01*
X133622378Y-86555000D01*
X133510217Y-86570416D01*
X133410000Y-86613946D01*
X133410000Y-85626633D01*
X133409999Y-85626633D01*
X133302207Y-85644619D01*
X133074539Y-85722780D01*
X132862835Y-85837348D01*
X132672873Y-85985201D01*
X132509846Y-86162294D01*
X132494106Y-86186387D01*
X132440959Y-86231743D01*
X132371728Y-86241166D01*
X132308392Y-86211663D01*
X132286490Y-86186387D01*
X132270551Y-86161990D01*
X132107463Y-85984829D01*
X131917439Y-85836928D01*
X131705664Y-85722321D01*
X131705660Y-85722319D01*
X131705659Y-85722319D01*
X131477915Y-85644134D01*
X131240399Y-85604500D01*
X130999601Y-85604500D01*
X130762084Y-85644134D01*
X130534340Y-85722319D01*
X130534336Y-85722320D01*
X130534336Y-85722321D01*
X130322561Y-85836928D01*
X130322559Y-85836928D01*
X130322556Y-85836931D01*
X130180067Y-85947833D01*
X130115073Y-85973475D01*
X130046533Y-85959908D01*
X129996209Y-85911439D01*
X129987727Y-85893318D01*
X129976296Y-85862669D01*
X129890046Y-85747454D01*
X129774831Y-85661204D01*
X129639983Y-85610909D01*
X129580373Y-85604500D01*
X129577050Y-85604500D01*
X127582939Y-85604500D01*
X127582920Y-85604500D01*
X127579628Y-85604501D01*
X127576348Y-85604853D01*
X127576340Y-85604854D01*
X127520015Y-85610909D01*
X127385169Y-85661204D01*
X127269954Y-85747454D01*
X127183704Y-85862668D01*
X127133409Y-85997516D01*
X127127496Y-86052517D01*
X127127000Y-86057127D01*
X127127000Y-86060448D01*
X127127000Y-86060449D01*
X127127000Y-88149560D01*
X127127000Y-88149578D01*
X115120500Y-88149578D01*
X115120500Y-79227764D01*
X118265787Y-79227764D01*
X118295413Y-79497016D01*
X118363928Y-79759087D01*
X118469871Y-80008392D01*
X118610982Y-80239611D01*
X118784253Y-80447818D01*
X118784255Y-80447820D01*
X118985998Y-80628582D01*
X119211910Y-80778044D01*
X119318211Y-80827876D01*
X119457177Y-80893021D01*
X119716562Y-80971058D01*
X119716569Y-80971060D01*
X119984561Y-81010500D01*
X119984564Y-81010500D01*
X120185369Y-81010500D01*
X120187631Y-81010500D01*
X120390156Y-80995677D01*
X120654553Y-80936780D01*
X120907558Y-80840014D01*
X121143777Y-80707441D01*
X121358177Y-80541888D01*
X121546186Y-80346881D01*
X121703799Y-80126579D01*
X121827656Y-79885675D01*
X121915118Y-79629305D01*
X121964319Y-79362933D01*
X121971735Y-79159999D01*
X152354531Y-79159999D01*
X152374364Y-79386689D01*
X152433261Y-79606497D01*
X152529432Y-79812735D01*
X152659953Y-79999140D01*
X152820859Y-80160046D01*
X153007264Y-80290567D01*
X153007265Y-80290567D01*
X153007266Y-80290568D01*
X153213504Y-80386739D01*
X153433308Y-80445635D01*
X153584436Y-80458856D01*
X153659999Y-80465468D01*
X153659999Y-80465467D01*
X153660000Y-80465468D01*
X153886692Y-80445635D01*
X154106496Y-80386739D01*
X154312734Y-80290568D01*
X154499139Y-80160047D01*
X154660047Y-79999139D01*
X154790568Y-79812734D01*
X154886739Y-79606496D01*
X154945635Y-79386692D01*
X154965468Y-79160000D01*
X162514531Y-79160000D01*
X162534364Y-79386689D01*
X162593261Y-79606497D01*
X162689432Y-79812735D01*
X162819953Y-79999140D01*
X162980859Y-80160046D01*
X163167264Y-80290567D01*
X163167265Y-80290567D01*
X163167266Y-80290568D01*
X163373504Y-80386739D01*
X163593308Y-80445635D01*
X163820000Y-80465468D01*
X164046692Y-80445635D01*
X164266496Y-80386739D01*
X164472734Y-80290568D01*
X164659139Y-80160047D01*
X164820047Y-79999139D01*
X164950568Y-79812734D01*
X165046739Y-79606496D01*
X165105635Y-79386692D01*
X165119539Y-79227764D01*
X168265787Y-79227764D01*
X168295413Y-79497016D01*
X168363928Y-79759087D01*
X168469871Y-80008392D01*
X168610982Y-80239611D01*
X168784253Y-80447818D01*
X168784255Y-80447820D01*
X168985998Y-80628582D01*
X169211910Y-80778044D01*
X169318211Y-80827876D01*
X169457177Y-80893021D01*
X169716562Y-80971058D01*
X169716569Y-80971060D01*
X169984561Y-81010500D01*
X169984564Y-81010500D01*
X170185369Y-81010500D01*
X170187631Y-81010500D01*
X170390156Y-80995677D01*
X170654553Y-80936780D01*
X170907558Y-80840014D01*
X171143777Y-80707441D01*
X171358177Y-80541888D01*
X171546186Y-80346881D01*
X171703799Y-80126579D01*
X171827656Y-79885675D01*
X171915118Y-79629305D01*
X171964319Y-79362933D01*
X171974212Y-79092235D01*
X171944586Y-78822982D01*
X171876072Y-78560912D01*
X171770130Y-78311610D01*
X171629018Y-78080390D01*
X171629017Y-78080388D01*
X171455746Y-77872181D01*
X171436049Y-77854532D01*
X171254002Y-77691418D01*
X171028090Y-77541956D01*
X171028086Y-77541954D01*
X170782822Y-77426978D01*
X170523437Y-77348941D01*
X170523431Y-77348940D01*
X170255439Y-77309500D01*
X170052369Y-77309500D01*
X170050120Y-77309664D01*
X170050109Y-77309665D01*
X169849843Y-77324322D01*
X169585449Y-77383219D01*
X169332441Y-77479986D01*
X169096223Y-77612559D01*
X168881825Y-77778109D01*
X168693813Y-77973120D01*
X168536201Y-78193420D01*
X168412342Y-78434329D01*
X168324881Y-78690695D01*
X168275680Y-78957066D01*
X168265787Y-79227764D01*
X165119539Y-79227764D01*
X165125468Y-79160000D01*
X165105635Y-78933308D01*
X165046739Y-78713504D01*
X164950568Y-78507266D01*
X164939343Y-78491234D01*
X164820046Y-78320859D01*
X164659140Y-78159953D01*
X164472735Y-78029432D01*
X164266497Y-77933261D01*
X164046689Y-77874364D01*
X163820000Y-77854531D01*
X163593310Y-77874364D01*
X163373502Y-77933261D01*
X163167264Y-78029432D01*
X162980859Y-78159953D01*
X162819953Y-78320859D01*
X162689432Y-78507264D01*
X162593261Y-78713502D01*
X162534364Y-78933310D01*
X162514531Y-79160000D01*
X154965468Y-79160000D01*
X154945635Y-78933308D01*
X154886739Y-78713504D01*
X154790568Y-78507266D01*
X154779343Y-78491234D01*
X154660046Y-78320859D01*
X154499140Y-78159953D01*
X154312735Y-78029432D01*
X154106497Y-77933261D01*
X153886689Y-77874364D01*
X153659999Y-77854531D01*
X153433310Y-77874364D01*
X153213502Y-77933261D01*
X153007264Y-78029432D01*
X152820859Y-78159953D01*
X152659953Y-78320859D01*
X152529432Y-78507264D01*
X152433261Y-78713502D01*
X152374364Y-78933310D01*
X152354531Y-79159999D01*
X121971735Y-79159999D01*
X121974212Y-79092235D01*
X121944586Y-78822982D01*
X121876072Y-78560912D01*
X121770130Y-78311610D01*
X121629018Y-78080390D01*
X121629017Y-78080388D01*
X121455746Y-77872181D01*
X121436049Y-77854532D01*
X121254002Y-77691418D01*
X121028090Y-77541956D01*
X121028086Y-77541954D01*
X120782822Y-77426978D01*
X120523437Y-77348941D01*
X120523431Y-77348940D01*
X120255439Y-77309500D01*
X120052369Y-77309500D01*
X120050120Y-77309664D01*
X120050109Y-77309665D01*
X119849843Y-77324322D01*
X119585449Y-77383219D01*
X119332441Y-77479986D01*
X119096223Y-77612559D01*
X118881825Y-77778109D01*
X118693813Y-77973120D01*
X118536201Y-78193420D01*
X118412342Y-78434329D01*
X118324881Y-78690695D01*
X118275680Y-78957066D01*
X118265787Y-79227764D01*
X115120500Y-79227764D01*
X115120500Y-77160000D01*
X138514551Y-77160000D01*
X138534317Y-77411149D01*
X138593126Y-77656110D01*
X138607752Y-77691419D01*
X138689534Y-77888859D01*
X138821164Y-78103659D01*
X138984776Y-78295224D01*
X139176341Y-78458836D01*
X139391141Y-78590466D01*
X139623889Y-78686873D01*
X139868852Y-78745683D01*
X140120000Y-78765449D01*
X140371148Y-78745683D01*
X140616111Y-78686873D01*
X140848859Y-78590466D01*
X141063659Y-78458836D01*
X141255224Y-78295224D01*
X141295712Y-78247817D01*
X141354215Y-78209627D01*
X141424083Y-78209127D01*
X141483130Y-78246480D01*
X141484172Y-78247682D01*
X141524776Y-78295224D01*
X141716341Y-78458836D01*
X141931141Y-78590466D01*
X142163889Y-78686873D01*
X142408852Y-78745683D01*
X142660000Y-78765449D01*
X142911148Y-78745683D01*
X143156111Y-78686873D01*
X143388859Y-78590466D01*
X143603659Y-78458836D01*
X143795224Y-78295224D01*
X143835712Y-78247817D01*
X143894215Y-78209627D01*
X143964083Y-78209127D01*
X144023130Y-78246480D01*
X144024172Y-78247682D01*
X144064776Y-78295224D01*
X144256341Y-78458836D01*
X144471141Y-78590466D01*
X144703889Y-78686873D01*
X144948852Y-78745683D01*
X145200000Y-78765449D01*
X145451148Y-78745683D01*
X145696111Y-78686873D01*
X145928859Y-78590466D01*
X146061018Y-78509478D01*
X146128461Y-78491234D01*
X146195064Y-78512350D01*
X146225073Y-78540895D01*
X146282454Y-78617546D01*
X146397669Y-78703796D01*
X146532517Y-78754091D01*
X146592127Y-78760500D01*
X148887872Y-78760499D01*
X148947483Y-78754091D01*
X149082331Y-78703796D01*
X149197546Y-78617546D01*
X149283796Y-78502331D01*
X149334091Y-78367483D01*
X149340500Y-78307873D01*
X149340499Y-76012128D01*
X149334091Y-75952517D01*
X149283796Y-75817669D01*
X149197546Y-75702454D01*
X149082331Y-75616204D01*
X148947483Y-75565909D01*
X148887873Y-75559500D01*
X148884550Y-75559500D01*
X146595439Y-75559500D01*
X146595420Y-75559500D01*
X146592128Y-75559501D01*
X146588848Y-75559853D01*
X146588840Y-75559854D01*
X146532515Y-75565909D01*
X146397669Y-75616204D01*
X146282453Y-75702454D01*
X146225072Y-75779105D01*
X146169138Y-75820975D01*
X146099447Y-75825959D01*
X146061016Y-75810520D01*
X146009751Y-75779105D01*
X145928859Y-75729534D01*
X145812484Y-75681330D01*
X145696110Y-75633126D01*
X145451149Y-75574317D01*
X145200000Y-75554551D01*
X144948850Y-75574317D01*
X144703889Y-75633126D01*
X144471139Y-75729535D01*
X144256342Y-75861163D01*
X144064776Y-76024776D01*
X144024290Y-76072179D01*
X143965783Y-76110372D01*
X143895915Y-76110870D01*
X143836869Y-76073516D01*
X143835710Y-76072179D01*
X143795224Y-76024776D01*
X143603659Y-75861164D01*
X143388859Y-75729534D01*
X143272484Y-75681330D01*
X143156110Y-75633126D01*
X142911149Y-75574317D01*
X142722882Y-75559500D01*
X142660000Y-75554551D01*
X142659999Y-75554551D01*
X142408850Y-75574317D01*
X142163889Y-75633126D01*
X141931139Y-75729535D01*
X141716342Y-75861163D01*
X141524776Y-76024776D01*
X141484290Y-76072179D01*
X141425783Y-76110372D01*
X141355915Y-76110870D01*
X141296869Y-76073516D01*
X141295710Y-76072179D01*
X141255224Y-76024776D01*
X141063659Y-75861164D01*
X140848859Y-75729534D01*
X140732484Y-75681330D01*
X140616110Y-75633126D01*
X140371149Y-75574317D01*
X140182882Y-75559500D01*
X140120000Y-75554551D01*
X140119999Y-75554551D01*
X139868850Y-75574317D01*
X139623889Y-75633126D01*
X139391139Y-75729535D01*
X139176342Y-75861163D01*
X138984776Y-76024776D01*
X138821163Y-76216342D01*
X138689535Y-76431139D01*
X138593126Y-76663889D01*
X138534317Y-76908850D01*
X138514551Y-77160000D01*
X115120500Y-77160000D01*
X115120500Y-74284500D01*
X115140185Y-74217461D01*
X115192989Y-74171706D01*
X115244500Y-74160500D01*
X174995500Y-74160500D01*
X175062539Y-74180185D01*
G37*
%TD.AperFunction*%
%TD*%
M02*
